<svg width="39" height="40" viewBox="0 0 39 40" fill="none" xmlns="http://www.w3.org/2000/svg">
<path d="M11.8125 31.75L15.375 14.6875L12 16V20.5H8.25V13.5625L17.7188 9.57812C18.1562 9.39062 18.6175 9.27375 19.1025 9.2275C19.5875 9.18125 20.0481 9.23562 20.4844 9.39062C20.9219 9.54688 21.3363 9.76562 21.7275 10.0469C22.1187 10.3281 22.4387 10.6875 22.6875 11.125L24.5625 14.125C25.4375 15.5313 26.5863 16.6331 28.0088 17.4306C29.4312 18.2281 30.97 18.6262 32.625 18.625V22.375C30.4375 22.375 28.4769 21.9375 26.7431 21.0625C25.0094 20.1875 23.5325 19.0625 22.3125 17.6875L21.1875 20.5L25.125 24.25V31.75H21.375V26.0312L17.7188 22.6562L15.75 31.75H11.8125ZM22.3125 8.3125C21.2812 8.3125 20.3988 7.94563 19.665 7.21187C18.9312 6.47813 18.5637 5.595 18.5625 4.5625C18.5625 3.53125 18.93 2.64875 19.665 1.915C20.4 1.18125 21.2825 0.81375 22.3125 0.8125C23.3438 0.8125 24.2269 1.18 24.9619 1.915C25.6969 2.65 26.0637 3.5325 26.0625 4.5625C26.0625 5.59375 25.6956 6.47688 24.9619 7.21187C24.2281 7.94688 23.345 8.31375 22.3125 8.3125ZM19.5 39.25C16.9062 39.25 14.4688 38.7575 12.1875 37.7725C9.90625 36.7875 7.92188 35.4519 6.23438 33.7656C4.54688 32.0781 3.21125 30.0938 2.2275 27.8125C1.24375 25.5312 0.75125 23.0938 0.75 20.5C0.75 16.7812 1.71125 13.4375 3.63375 10.4688C5.55625 7.5 8.06375 5.25 11.1562 3.71875L12.8438 7.04687C10.375 8.26562 8.3675 10.0706 6.82125 12.4619C5.275 14.8531 4.50125 17.5325 4.5 20.5C4.5 24.6875 5.95312 28.2344 8.85938 31.1406C11.7656 34.0469 15.3125 35.5 19.5 35.5C23.6875 35.5 27.2344 34.0469 30.1406 31.1406C33.0469 28.2344 34.5 24.6875 34.5 20.5H38.25C38.25 23.0938 37.7575 25.5312 36.7725 27.8125C35.7875 30.0938 34.4519 32.0781 32.7656 33.7656C31.0781 35.4531 29.0938 36.7894 26.8125 37.7744C24.5312 38.7594 22.0938 39.2513 19.5 39.25Z" fill="#F8F8F8"/>
</svg>
