<svg width="45" height="32" viewBox="0 0 45 32" fill="none" xmlns="http://www.w3.org/2000/svg">
<path d="M44.2209 11.4737L41.6744 5.04228C41.4584 4.49812 41.0856 4.03205 40.6043 3.70442C40.123 3.37679 39.5554 3.20271 38.9751 3.20473H32.6852V1.73469C32.6852 1.34481 32.5319 0.970899 32.259 0.695213C31.9861 0.419527 31.616 0.264648 31.2301 0.264648H3.58218C2.81032 0.264648 2.07007 0.574406 1.52428 1.12578C0.978495 1.67715 0.671875 2.42497 0.671875 3.20473V23.7853C0.671875 24.565 0.978495 25.3129 1.52428 25.8642C2.07007 26.4156 2.81032 26.7254 3.58218 26.7254H6.67437C6.99495 27.9902 7.7231 29.1113 8.74405 29.9119C9.765 30.7125 11.0207 31.147 12.3131 31.147C13.6055 31.147 14.8612 30.7125 15.8821 29.9119C16.9031 29.1113 17.6312 27.9902 17.9518 26.7254H27.0465C27.3671 27.9902 28.0952 29.1113 29.1162 29.9119C30.1371 30.7125 31.3928 31.147 32.6852 31.147C33.9776 31.147 35.2333 30.7125 36.2542 29.9119C37.2752 29.1113 38.0033 27.9902 38.3239 26.7254H41.4161C42.188 26.7254 42.9282 26.4156 43.474 25.8642C44.0198 25.3129 44.3264 24.565 44.3264 23.7853V12.025C44.3269 11.836 44.2911 11.6488 44.2209 11.4737ZM32.6852 6.14481H38.9751L40.7213 10.5549H32.6852V6.14481ZM3.58218 3.20473H29.7749V14.965H3.58218V3.20473ZM12.3131 28.1954C11.7375 28.1954 11.1748 28.023 10.6962 27.6999C10.2176 27.3768 9.84459 26.9177 9.62432 26.3804C9.40404 25.8432 9.34641 25.2521 9.4587 24.6817C9.571 24.1114 9.84818 23.5875 10.2552 23.1764C10.6622 22.7652 11.1808 22.4852 11.7453 22.3717C12.3099 22.2583 12.895 22.3165 13.4268 22.539C13.9586 22.7616 14.4131 23.1384 14.7329 23.6219C15.0527 24.1054 15.2234 24.6738 15.2234 25.2553C15.2234 26.0351 14.9168 26.7829 14.371 27.3343C13.8252 27.8856 13.0849 28.1954 12.3131 28.1954ZM27.0465 23.7853H17.9518C17.6312 22.5204 16.9031 21.3993 15.8821 20.5988C14.8612 19.7982 13.6055 19.3636 12.3131 19.3636C11.0207 19.3636 9.765 19.7982 8.74405 20.5988C7.7231 21.3993 6.99495 22.5204 6.67437 23.7853H3.58218V17.9051H29.7749V20.1671C29.1058 20.5579 28.5201 21.0789 28.0517 21.6999C27.5834 22.321 27.2417 23.0298 27.0465 23.7853ZM32.6852 28.1954C32.1096 28.1954 31.5469 28.023 31.0683 27.6999C30.5897 27.3768 30.2167 26.9177 29.9964 26.3804C29.7762 25.8432 29.7185 25.2521 29.8308 24.6817C29.9431 24.1114 30.2203 23.5875 30.6273 23.1764C31.0343 22.7652 31.5529 22.4852 32.1174 22.3717C32.682 22.2583 33.2671 22.3165 33.7989 22.539C34.3307 22.7616 34.7852 23.1384 35.105 23.6219C35.4248 24.1054 35.5955 24.6738 35.5955 25.2553C35.5955 26.0351 35.2889 26.7829 34.7431 27.3343C34.1973 27.8856 33.4571 28.1954 32.6852 28.1954ZM41.4161 23.7853H38.3239C37.9995 22.5235 37.27 21.4061 36.2496 20.608C35.2292 19.81 33.9756 19.3764 32.6852 19.3752V13.495H41.4161V23.7853Z" fill="white"/>
</svg>
