<svg width="48" height="50" viewBox="0 0 48 50" fill="none" xmlns="http://www.w3.org/2000/svg">
<g id="fluent:person-support-16-regular">
<path id="Vector" d="M9.48621 30.8285C9.60031 30.9759 9.71653 31.1215 9.83481 31.2653C9.90655 31.0978 9.98943 30.935 10.0831 30.778L9.48621 30.8285ZM9.48621 30.8285C9.56662 30.667 9.65664 30.51 9.756 30.3583M20.0696 33.6723L20.0146 33.3769L19.728 33.2868C16.8842 32.3927 14.3785 30.6233 12.5544 28.2186L12.5539 28.2181C11.1752 26.4057 10.2273 24.2903 9.78576 22.0386C9.34419 19.7869 9.42119 17.4612 10.0106 15.2452C10.6 13.0292 11.6855 10.9841 13.1807 9.27111C14.6759 7.55811 16.5398 6.22402 18.6248 5.37325C20.7098 4.52249 22.9595 4.17806 25.1966 4.36678C27.4337 4.5555 29.5979 5.2723 31.5184 6.46126C33.4389 7.65026 35.0635 9.27914 36.2634 11.2201C37.4631 13.1609 38.2051 15.3604 38.4303 17.645C38.4807 18.1703 38.0565 18.6251 37.5 18.6251C36.9694 18.6251 36.4813 18.1719 36.4066 17.5383L36.4062 17.5355C36.1278 15.2833 35.2648 13.147 33.9055 11.3479C32.5461 9.54873 30.7396 8.1518 28.672 7.30291C26.6043 6.45399 24.3514 6.18436 22.1467 6.52231C19.9421 6.86025 17.867 7.7933 16.1359 9.22374C14.4049 10.6541 13.0809 12.5297 12.2996 14.6558C11.5184 16.7817 11.308 19.0818 11.6898 21.3182C12.0716 23.5546 13.0321 25.6473 14.4729 27.3794C15.9137 29.1116 17.7828 30.4205 19.8874 31.1693L20.2922 31.3134L20.4955 30.9348C20.836 30.3007 21.3341 29.7711 21.9382 29.399C22.5422 29.0269 23.2311 28.825 23.9349 28.8131C24.6388 28.8012 25.3337 28.9796 25.9493 29.331C26.565 29.6824 27.0799 30.1947 27.4407 30.8168C27.8016 31.4389 27.9951 32.1483 28.0009 32.8728C28.0067 33.5972 27.8246 34.3098 27.4737 34.938C27.1228 35.5661 26.6161 36.0869 26.0061 36.4486C25.3961 36.8103 24.704 37.0002 24.0001 37.0001H23.9999C23.0712 37.0003 22.1702 36.6697 21.4524 36.0632C20.7343 35.4565 20.2443 34.6113 20.0696 33.6723Z" fill="white" stroke="white"/>
</g>
</svg>
