<svg width="46" height="46" viewBox="0 0 46 46" fill="none" xmlns="http://www.w3.org/2000/svg">
<path d="M17.2507 42.1667H28.7507C38.334 42.1667 42.1673 38.3334 42.1673 28.75V17.25C42.1673 7.66671 38.334 3.83337 28.7507 3.83337H17.2507C7.66732 3.83337 3.83398 7.66671 3.83398 17.25V28.75C3.83398 38.3334 7.66732 42.1667 17.2507 42.1667Z" stroke="#3048C1" stroke-width="3" stroke-linecap="round" stroke-linejoin="round"/>
<path d="M32.6 16.75H29V14.375C29 13.0687 27.92 12 26.6 12H19.4C18.08 12 17 13.0687 17 14.375V16.75H13.4C12.08 16.75 11 17.8188 11 19.125V31H35V19.125C35 17.8188 33.92 16.75 32.6 16.75ZM19.4 14.375H26.6V16.75H19.4V14.375ZM32.6 28.625H13.4V25.0625H15.8V26.25H18.2V25.0625H27.8V26.25H30.2V25.0625H32.6V28.625ZM30.2 22.6875V21.5H27.8V22.6875H18.2V21.5H15.8V22.6875H13.4V19.125H32.6V22.6875H30.2Z" fill="#3048C1"/>
</svg>
