<svg width="43" height="33" viewBox="0 0 43 33" fill="none" xmlns="http://www.w3.org/2000/svg">
<path d="M39.4167 0.375H3.58333C1.63042 0.446667 0.0716667 2.00542 0 3.95833V29.0417C0.0716667 30.9946 1.63042 32.5533 3.58333 32.625H39.4167C41.3696 32.5533 42.9283 30.9946 43 29.0417V3.95833C42.967 3.01847 42.5789 2.12607 41.9139 1.46108C41.2489 0.796091 40.3565 0.407976 39.4167 0.375ZM39.4167 29.0417H3.58333V3.95833H39.4167V29.0417ZM25.0833 25.4583V23.2188C25.0833 20.2446 19.0992 18.7396 16.125 18.7396C13.1508 18.7396 7.16667 20.2446 7.16667 23.2188V25.4583H25.0833ZM16.125 7.54167C14.9371 7.54167 13.7978 8.01358 12.9578 8.85358C12.1177 9.69359 11.6458 10.8329 11.6458 12.0208C11.6458 12.609 11.7617 13.1915 11.9868 13.7349C12.2119 14.2784 12.5418 14.7722 12.9578 15.1881C13.7978 16.0281 14.9371 16.5 16.125 16.5C16.7132 16.5 17.2957 16.3841 17.8391 16.159C18.3825 15.9339 18.8763 15.604 19.2922 15.1881C19.7082 14.7722 20.0381 14.2784 20.2632 13.7349C20.4883 13.1915 20.6042 12.609 20.6042 12.0208C20.6042 11.4326 20.4883 10.8502 20.2632 10.3067C20.0381 9.76329 19.7082 9.26951 19.2922 8.85358C18.8763 8.43765 18.3825 8.10772 17.8391 7.88262C17.2957 7.65752 16.7132 7.54167 16.125 7.54167ZM25.0833 7.54167V9.33333H35.8333V7.54167H25.0833ZM25.0833 11.125V12.9167H35.8333V11.125H25.0833ZM25.0833 14.7083V16.5H32.25V14.7083H25.0833Z" fill="#F8F8F8"/>
</svg>
