<svg width="41" height="41" viewBox="0 0 41 41" fill="none" xmlns="http://www.w3.org/2000/svg">
<path d="M38.8281 0.578125H2.17188C1.29033 0.578125 0.578125 1.29033 0.578125 2.17188V38.8281C0.578125 39.7097 1.29033 40.4219 2.17188 40.4219H38.8281C39.7097 40.4219 40.4219 39.7097 40.4219 38.8281V2.17188C40.4219 1.29033 39.7097 0.578125 38.8281 0.578125ZM36.8359 36.8359H4.16406V4.16406H36.8359V36.8359ZM11.9336 29.0166V32.8516C11.9336 33.0707 12.1129 33.25 12.332 33.25H14.7227C14.9418 33.25 15.1211 33.0707 15.1211 32.8516V29.0166C14.6181 29.181 14.0852 29.2656 13.5273 29.2656C12.9695 29.2656 12.4366 29.176 11.9336 29.0166ZM15.1211 19.1553V8.14844C15.1211 7.9293 14.9418 7.75 14.7227 7.75H12.332C12.1129 7.75 11.9336 7.9293 11.9336 8.14844V19.1553C12.4366 18.9909 12.9695 18.9062 13.5273 18.9062C14.0852 18.9062 14.6181 18.9959 15.1211 19.1553ZM11.9336 29.0166C12.4366 29.181 12.9695 29.2656 13.5273 29.2656C14.0852 29.2656 14.6181 29.176 15.1211 29.0166C17.2029 28.3442 18.707 26.3919 18.707 24.0859C18.707 21.78 17.2029 19.8276 15.1211 19.1553C14.6181 18.9909 14.0852 18.9062 13.5273 18.9062C12.9695 18.9062 12.4366 18.9959 11.9336 19.1553C9.85176 19.8276 8.34766 21.78 8.34766 24.0859C8.34766 26.3919 9.85176 28.3442 11.9336 29.0166ZM11.9386 23.2542C11.9535 23.2243 11.9734 23.1944 11.9884 23.1646V23.1596L12.0481 23.0699C12.0531 23.06 12.0581 23.055 12.0631 23.045C12.078 23.0201 12.0979 23.0002 12.1129 22.9753C12.1179 22.9703 12.1229 22.9604 12.1278 22.9554C12.1527 22.9255 12.1727 22.9006 12.1976 22.8757L12.2125 22.8607L12.2723 22.801L12.2922 22.7811C12.3171 22.7562 12.342 22.7362 12.3719 22.7113C12.4018 22.6864 12.4267 22.6665 12.4565 22.6466C12.4665 22.6416 12.4715 22.6366 12.4814 22.6316C12.5063 22.6167 12.5263 22.5968 12.5512 22.5818C12.5562 22.5769 12.5661 22.5719 12.5711 22.5669C12.601 22.547 12.6309 22.532 12.6657 22.5121C12.6707 22.5071 12.6807 22.5071 12.6856 22.5021C12.7105 22.4872 12.7354 22.4772 12.7653 22.4623L12.7952 22.4474C12.8301 22.4324 12.86 22.4175 12.8948 22.4075C12.9297 22.3926 12.9646 22.3826 12.9994 22.3727C13.0094 22.3677 13.0193 22.3677 13.0293 22.3627C13.0592 22.3527 13.0841 22.3478 13.114 22.3428C13.1239 22.3428 13.1289 22.3378 13.1389 22.3378C13.1737 22.3278 13.2136 22.3229 13.2484 22.3179C13.2584 22.3179 13.2634 22.3179 13.2733 22.3129C13.3032 22.3079 13.3331 22.3079 13.363 22.3029H13.3929C13.4327 22.3029 13.4676 22.2979 13.5074 22.2979C13.5473 22.2979 13.5821 22.298 13.622 22.3029H13.6519C13.6817 22.3029 13.7116 22.3079 13.7415 22.3129C13.7515 22.3129 13.7564 22.3129 13.7664 22.3179C13.8013 22.3229 13.8411 22.3278 13.876 22.3378C13.8859 22.3378 13.8909 22.3428 13.9009 22.3428C13.9308 22.3478 13.9606 22.3577 13.9855 22.3627C13.9955 22.3677 14.0055 22.3677 14.0154 22.3727C14.0503 22.3826 14.0852 22.3926 14.12 22.4075C14.1549 22.4175 14.1848 22.4324 14.2196 22.4474L14.2495 22.4623C14.2744 22.4723 14.3043 22.4872 14.3292 22.5021C14.3342 22.5071 14.3441 22.5071 14.3491 22.5121C14.379 22.5271 14.4139 22.547 14.4437 22.5669C14.4487 22.5719 14.4587 22.5769 14.4637 22.5818C14.4886 22.5968 14.5135 22.6117 14.5334 22.6316C14.5434 22.6366 14.5483 22.6416 14.5583 22.6466C14.5882 22.6665 14.6181 22.6914 14.643 22.7113C14.6679 22.7313 14.6978 22.7562 14.7227 22.7811L14.7426 22.801L14.8023 22.8607L14.8173 22.8757C14.8422 22.9006 14.8671 22.9305 14.887 22.9554C14.892 22.9604 14.897 22.9703 14.902 22.9753C14.9219 22.9952 14.9368 23.0201 14.9518 23.045C14.9567 23.055 14.9617 23.06 14.9667 23.0699L15.0265 23.1596C15.0265 23.1596 15.0265 23.1646 15.0314 23.1646C15.1975 23.4432 15.2853 23.7615 15.2854 24.0859C15.2854 24.3848 15.2107 24.6687 15.0813 24.9177C15.0663 24.9476 15.0464 24.9774 15.0314 25.0073C15.0314 25.0073 15.0314 25.0123 15.0265 25.0123L14.9667 25.102C14.9617 25.1119 14.9567 25.1169 14.9518 25.1269C14.9368 25.1518 14.9169 25.1717 14.902 25.1966C14.897 25.2016 14.892 25.2115 14.887 25.2165C14.8621 25.2464 14.8422 25.2713 14.8173 25.2962L14.8023 25.3111L14.7426 25.3709L14.7227 25.3908C14.6978 25.4157 14.6729 25.4356 14.643 25.4605C14.6131 25.4854 14.5882 25.5054 14.5583 25.5253C14.5483 25.5303 14.5434 25.5353 14.5334 25.5402C14.5085 25.5552 14.4886 25.5751 14.4637 25.59C14.4587 25.595 14.4487 25.6 14.4437 25.605C14.4139 25.6249 14.384 25.6398 14.3491 25.6598C14.3441 25.6647 14.3342 25.6647 14.3292 25.6697C14.3043 25.6847 14.2794 25.6946 14.2495 25.7096L14.2196 25.7245C14.1848 25.7395 14.1549 25.7544 14.12 25.7644C14.0852 25.7793 14.0503 25.7893 14.0154 25.7992C14.0055 25.8042 13.9955 25.8042 13.9855 25.8092C13.9557 25.8191 13.9308 25.8241 13.9009 25.8291C13.8909 25.8291 13.8859 25.8341 13.876 25.8341C13.8411 25.844 13.8013 25.849 13.7664 25.854C13.7564 25.854 13.7515 25.854 13.7415 25.859C13.7116 25.864 13.6817 25.864 13.6519 25.8689H13.622C13.5821 25.8689 13.5473 25.8739 13.5074 25.8739C13.4676 25.8739 13.4327 25.8739 13.3929 25.8689H13.363C13.3331 25.8689 13.3032 25.864 13.2733 25.859C13.2634 25.859 13.2584 25.859 13.2484 25.854C13.2136 25.849 13.1737 25.844 13.1389 25.8341C13.1289 25.8341 13.1239 25.8291 13.114 25.8291C13.0841 25.8241 13.0542 25.8142 13.0293 25.8092C13.0193 25.8042 13.0094 25.8042 12.9994 25.7992C12.9646 25.7893 12.9297 25.7793 12.8948 25.7644C12.86 25.7544 12.8301 25.7395 12.7952 25.7245L12.7653 25.7096C12.7404 25.6996 12.7105 25.6847 12.6856 25.6697C12.6807 25.6647 12.6707 25.6647 12.6657 25.6598C12.6358 25.6448 12.601 25.6249 12.5711 25.605C12.5661 25.6 12.5562 25.595 12.5512 25.59C12.5263 25.5751 12.5014 25.5602 12.4814 25.5402C12.4715 25.5353 12.4665 25.5303 12.4565 25.5253C12.4267 25.5054 12.3968 25.4805 12.3719 25.4605C12.347 25.4406 12.3171 25.4157 12.2922 25.3908L12.2723 25.3709L12.2125 25.3111L12.1976 25.2962C12.1727 25.2713 12.1478 25.2414 12.1278 25.2165C12.1229 25.2115 12.1179 25.2016 12.1129 25.1966C12.093 25.1767 12.078 25.1518 12.0631 25.1269C12.0581 25.1169 12.0531 25.1119 12.0481 25.102L11.9884 25.0123V25.0073C11.9685 24.9774 11.9535 24.9476 11.9386 24.9177C11.8091 24.6687 11.7344 24.3848 11.7344 24.0859C11.7344 23.7871 11.8091 23.5032 11.9386 23.2542ZM25.8789 21.8447V32.8516C25.8789 33.0707 26.0582 33.25 26.2773 33.25H28.668C28.8871 33.25 29.0664 33.0707 29.0664 32.8516V21.8447C28.5634 22.0091 28.0305 22.0938 27.4727 22.0938C26.9148 22.0938 26.3819 22.0041 25.8789 21.8447ZM29.0664 11.9834V8.14844C29.0664 7.9293 28.8871 7.75 28.668 7.75H26.2773C26.0582 7.75 25.8789 7.9293 25.8789 8.14844V11.9834C26.3819 11.819 26.9148 11.7344 27.4727 11.7344C28.0305 11.7344 28.5634 11.824 29.0664 11.9834ZM25.8789 21.8447C26.3819 22.0091 26.9148 22.0938 27.4727 22.0938C28.0305 22.0938 28.5634 22.0041 29.0664 21.8447C31.1482 21.1724 32.6523 19.22 32.6523 16.9141C32.6523 14.6081 31.1482 12.6558 29.0664 11.9834C28.5634 11.819 28.0305 11.7344 27.4727 11.7344C26.9148 11.7344 26.3819 11.824 25.8789 11.9834C23.7971 12.6558 22.293 14.6081 22.293 16.9141C22.293 19.22 23.7971 21.1724 25.8789 21.8447ZM25.8839 16.0823C25.8988 16.0524 25.9187 16.0226 25.9337 15.9927V15.9877L25.9935 15.898C25.9984 15.8881 26.0034 15.8831 26.0084 15.8731C26.0233 15.8482 26.0433 15.8283 26.0582 15.8034C26.0632 15.7984 26.0682 15.7885 26.0731 15.7835C26.098 15.7536 26.118 15.7287 26.1429 15.7038L26.1578 15.6889L26.2176 15.6291L26.2375 15.6092C26.2624 15.5843 26.2873 15.5644 26.3172 15.5395C26.3471 15.5146 26.372 15.4946 26.4019 15.4747C26.4118 15.4697 26.4168 15.4647 26.4268 15.4598C26.4517 15.4448 26.4716 15.4249 26.4965 15.41C26.5015 15.405 26.5114 15.4 26.5164 15.395C26.5463 15.3751 26.5762 15.3602 26.611 15.3402C26.616 15.3353 26.626 15.3353 26.631 15.3303C26.6559 15.3153 26.6808 15.3054 26.7106 15.2904L26.7405 15.2755C26.7754 15.2605 26.8053 15.2456 26.8401 15.2356C26.875 15.2207 26.9099 15.2107 26.9447 15.2008C26.9547 15.1958 26.9646 15.1958 26.9746 15.1908C27.0045 15.1809 27.0294 15.1759 27.0593 15.1709C27.0692 15.1709 27.0742 15.1659 27.0842 15.1659C27.119 15.156 27.1589 15.151 27.1938 15.146C27.2037 15.146 27.2087 15.146 27.2187 15.141C27.2485 15.136 27.2784 15.136 27.3083 15.1311H27.3382C27.378 15.1311 27.4129 15.1261 27.4527 15.1261C27.4926 15.1261 27.5274 15.1261 27.5673 15.1311H27.5972C27.6271 15.1311 27.6569 15.136 27.6868 15.141C27.6968 15.141 27.7018 15.141 27.7117 15.146C27.7466 15.151 27.7864 15.156 27.8213 15.1659C27.8312 15.1659 27.8362 15.1709 27.8462 15.1709C27.8761 15.1759 27.906 15.1858 27.9309 15.1908C27.9408 15.1958 27.9508 15.1958 27.9607 15.2008C27.9956 15.2107 28.0305 15.2207 28.0653 15.2356C28.1002 15.2456 28.1301 15.2605 28.1649 15.2755L28.1948 15.2904C28.2197 15.3004 28.2496 15.3153 28.2745 15.3303C28.2795 15.3353 28.2895 15.3353 28.2944 15.3402C28.3243 15.3552 28.3592 15.3751 28.3891 15.395C28.394 15.4 28.404 15.405 28.409 15.41C28.4339 15.4249 28.4588 15.4398 28.4787 15.4598C28.4887 15.4647 28.4937 15.4697 28.5036 15.4747C28.5335 15.4946 28.5634 15.5195 28.5883 15.5395C28.6132 15.5594 28.6431 15.5843 28.668 15.6092L28.6879 15.6291L28.7477 15.6889L28.7626 15.7038C28.7875 15.7287 28.8124 15.7586 28.8323 15.7835C28.8373 15.7885 28.8423 15.7984 28.8473 15.8034C28.8672 15.8233 28.8821 15.8482 28.8971 15.8731C28.9021 15.8831 28.907 15.8881 28.912 15.898L28.9718 15.9877V15.9927C29.1378 16.2713 29.2256 16.5897 29.2258 16.9141C29.2258 17.2129 29.1511 17.4968 29.0216 17.7458C29.0066 17.7757 28.9867 17.8056 28.9718 17.8354V17.8404L28.912 17.9301C28.907 17.94 28.9021 17.945 28.8971 17.955C28.8821 17.9799 28.8622 17.9998 28.8473 18.0247C28.8423 18.0297 28.8373 18.0396 28.8323 18.0446C28.8074 18.0745 28.7875 18.0994 28.7626 18.1243L28.7477 18.1393L28.6879 18.199L28.668 18.2189C28.6431 18.2438 28.6182 18.2638 28.5883 18.2887C28.5584 18.3136 28.5335 18.3335 28.5036 18.3534C28.4937 18.3584 28.4887 18.3634 28.4787 18.3684C28.4538 18.3833 28.4339 18.4032 28.409 18.4182C28.404 18.4231 28.394 18.4281 28.3891 18.4331C28.3592 18.453 28.3293 18.468 28.2944 18.4879C28.2895 18.4929 28.2795 18.4929 28.2745 18.4979C28.2496 18.5128 28.2247 18.5228 28.1948 18.5377L28.1649 18.5526C28.1301 18.5676 28.1002 18.5825 28.0653 18.5925C28.0305 18.6074 27.9956 18.6174 27.9607 18.6273C27.9508 18.6323 27.9408 18.6323 27.9309 18.6373C27.901 18.6473 27.8761 18.6522 27.8462 18.6572C27.8362 18.6572 27.8312 18.6622 27.8213 18.6622C27.7864 18.6722 27.7466 18.6771 27.7117 18.6821C27.7018 18.6821 27.6968 18.6821 27.6868 18.6871C27.6569 18.6921 27.6271 18.6921 27.5972 18.6971H27.5673C27.5274 18.6971 27.4926 18.7021 27.4527 18.7021C27.4129 18.7021 27.378 18.702 27.3382 18.6971H27.3083C27.2784 18.6971 27.2485 18.6921 27.2187 18.6871C27.2087 18.6871 27.2037 18.6871 27.1938 18.6821C27.1589 18.6771 27.119 18.6722 27.0842 18.6622C27.0742 18.6622 27.0692 18.6572 27.0593 18.6572C27.0294 18.6522 26.9995 18.6423 26.9746 18.6373C26.9646 18.6323 26.9547 18.6323 26.9447 18.6273C26.9099 18.6174 26.875 18.6074 26.8401 18.5925C26.8053 18.5825 26.7754 18.5676 26.7405 18.5526L26.7106 18.5377C26.6857 18.5277 26.6559 18.5128 26.631 18.4979C26.626 18.4929 26.616 18.4929 26.611 18.4879C26.5812 18.4729 26.5463 18.453 26.5164 18.4331C26.5114 18.4281 26.5015 18.4231 26.4965 18.4182C26.4716 18.4032 26.4467 18.3883 26.4268 18.3684C26.4168 18.3634 26.4118 18.3584 26.4019 18.3534C26.372 18.3335 26.3421 18.3086 26.3172 18.2887C26.2923 18.2688 26.2624 18.2438 26.2375 18.2189L26.2176 18.199L26.1578 18.1393L26.1429 18.1243C26.118 18.0994 26.0931 18.0695 26.0731 18.0446C26.0682 18.0396 26.0632 18.0297 26.0582 18.0247C26.0383 18.0048 26.0233 17.9799 26.0084 17.955C26.0034 17.945 25.9984 17.94 25.9935 17.9301L25.9337 17.8404V17.8354C25.9138 17.8056 25.8988 17.7757 25.8839 17.7458C25.7544 17.4968 25.6797 17.2129 25.6797 16.9141C25.6797 16.6152 25.7544 16.3313 25.8839 16.0823Z" fill="white"/>
</svg>
