<svg width="39" height="37" viewBox="0 0 39 37" fill="none" xmlns="http://www.w3.org/2000/svg">
<path d="M16.125 33.25H23.2917C23.2917 34.1783 22.9142 35.0685 22.2422 35.7249C21.5702 36.3812 20.6587 36.75 19.7084 36.75C18.758 36.75 17.8466 36.3812 17.1746 35.7249C16.5026 35.0685 16.125 34.1783 16.125 33.25ZM35.8334 29.75V31.5H3.58337V29.75L7.1667 26.25V15.75C7.1667 10.325 10.8038 5.5475 16.125 4.0075V3.5C16.125 2.57174 16.5026 1.6815 17.1746 1.02513C17.8466 0.368749 18.758 0 19.7084 0C20.6587 0 21.5702 0.368749 22.2422 1.02513C22.9142 1.6815 23.2917 2.57174 23.2917 3.5V4.0075C28.6129 5.5475 32.25 10.325 32.25 15.75V26.25L35.8334 29.75ZM28.6667 15.75C28.6667 13.4294 27.7229 11.2038 26.0429 9.56282C24.3629 7.92187 22.0843 7 19.7084 7C17.3325 7 15.0539 7.92187 13.3739 9.56282C11.6939 11.2038 10.75 13.4294 10.75 15.75V28H28.6667V15.75ZM33.5938 2.0825L31.0496 4.5675C32.565 6.02948 33.7681 7.77074 34.5893 9.69032C35.4104 11.6099 35.8333 13.6696 35.8334 15.75H39.4167C39.4167 10.6225 37.3384 5.6875 33.5938 2.0825ZM3.40348e-05 15.75H3.58337C3.58337 11.55 5.30337 7.525 8.36712 4.5675L5.82295 2.0825C3.97374 3.87025 2.5067 5.99912 1.50708 8.34542C0.507461 10.6917 -0.00480997 13.2087 3.40348e-05 15.75Z" fill="white"/>
</svg>
