<svg width="49" height="36" viewBox="0 0 49 36" fill="none" xmlns="http://www.w3.org/2000/svg">
<path d="M48.8816 13.2036L46.0232 5.91464C45.7808 5.29794 45.3623 4.76972 44.8221 4.3984C44.2819 4.02709 43.6448 3.8298 42.9934 3.83209H35.9333V2.16604C35.9333 1.72418 35.7612 1.30042 35.4549 0.987973C35.1486 0.67553 34.7332 0.5 34.3 0.5H3.26667C2.40029 0.5 1.5694 0.851058 0.956784 1.47595C0.344166 2.10083 0 2.94836 0 3.83209V27.1567C0 28.0404 0.344166 28.888 0.956784 29.5129C1.5694 30.1377 2.40029 30.4888 3.26667 30.4888H6.7375C7.09732 31.9223 7.91464 33.1928 9.06061 34.1002C10.2066 35.0075 11.616 35.5 13.0667 35.5C14.5173 35.5 15.9268 35.0075 17.0727 34.1002C18.2187 33.1928 19.036 31.9223 19.3958 30.4888H29.6042C29.964 31.9223 30.7813 33.1928 31.9273 34.1002C33.0732 35.0075 34.4827 35.5 35.9333 35.5C37.384 35.5 38.7934 35.0075 39.9394 34.1002C41.0854 33.1928 41.9027 31.9223 42.2625 30.4888H45.7333C46.5997 30.4888 47.4306 30.1377 48.0432 29.5129C48.6558 28.888 49 28.0404 49 27.1567V13.8284C49.0005 13.6142 48.9603 13.4021 48.8816 13.2036ZM35.9333 7.16418H42.9934L44.9534 12.1623H35.9333V7.16418ZM3.26667 3.83209H32.6667V17.1604H3.26667V3.83209ZM13.0667 32.1548C12.4206 32.1548 11.789 31.9594 11.2518 31.5933C10.7146 31.2272 10.2959 30.7068 10.0487 30.0979C9.80141 29.489 9.73672 28.8191 9.86277 28.1727C9.98881 27.5263 10.2999 26.9326 10.7568 26.4666C11.2136 26.0006 11.7957 25.6833 12.4294 25.5547C13.063 25.4261 13.7199 25.4921 14.3168 25.7443C14.9137 25.9965 15.4239 26.4236 15.7828 26.9715C16.1417 27.5195 16.3333 28.1637 16.3333 28.8228C16.3333 29.7065 15.9892 30.554 15.3765 31.1789C14.7639 31.8038 13.933 32.1548 13.0667 32.1548ZM29.6042 27.1567H19.3958C19.036 25.7232 18.2187 24.4527 17.0727 23.5453C15.9268 22.638 14.5173 22.1455 13.0667 22.1455C11.616 22.1455 10.2066 22.638 9.06061 23.5453C7.91464 24.4527 7.09732 25.7232 6.7375 27.1567H3.26667V20.4925H32.6667V23.0562C31.9156 23.499 31.2582 24.0894 30.7325 24.7933C30.2068 25.4972 29.8233 26.3005 29.6042 27.1567ZM35.9333 32.1548C35.2872 32.1548 34.6557 31.9594 34.1185 31.5933C33.5813 31.2272 33.1626 30.7068 32.9153 30.0979C32.6681 29.489 32.6034 28.8191 32.7294 28.1727C32.8555 27.5263 33.1666 26.9326 33.6234 26.4666C34.0803 26.0006 34.6624 25.6833 35.296 25.5547C35.9297 25.4261 36.5865 25.4921 37.1834 25.7443C37.7803 25.9965 38.2905 26.4236 38.6495 26.9715C39.0084 27.5195 39.2 28.1637 39.2 28.8228C39.2 29.7065 38.8558 30.554 38.2432 31.1789C37.6306 31.8038 36.7997 32.1548 35.9333 32.1548ZM45.7333 27.1567H42.2625C41.8984 25.7267 41.0795 24.4603 39.9342 23.5558C38.7889 22.6514 37.3818 22.16 35.9333 22.1586V15.4944H45.7333V27.1567Z" fill="white"/>
</svg>
