<svg width="40" height="36" viewBox="0 0 40 36" fill="none" xmlns="http://www.w3.org/2000/svg">
<path d="M38.9827 32.3666L31.466 24.85C32.1993 23.0166 31.8327 20.6333 30.1827 19.1666C28.5327 17.5166 26.1493 17.15 24.1327 18.0666L27.616 21.55L25.0494 24.1166L21.3827 20.45C20.466 22.4666 20.8327 24.85 22.4827 26.6833C24.1327 28.3333 26.3327 28.7 28.166 27.9666L35.6827 35.4833C36.0494 35.85 36.5993 35.85 36.7827 35.4833L38.616 33.65C39.166 33.1 39.166 32.55 38.9827 32.3666ZM15.3327 15.5C19.366 15.5 22.666 12.2 22.666 8.16665C22.666 4.13331 19.366 0.833313 15.3327 0.833313C11.2993 0.833313 7.99935 4.13331 7.99935 8.16665C7.99935 12.2 11.2993 15.5 15.3327 15.5ZM15.3327 4.49998C17.3493 4.49998 18.9993 6.14998 18.9993 8.16665C18.9993 10.1833 17.3493 11.8333 15.3327 11.8333C13.316 11.8333 11.666 10.1833 11.666 8.16665C11.666 6.14998 13.316 4.49998 15.3327 4.49998ZM20.8327 30.1666H0.666016V24.6666C0.666016 19.7166 10.3827 17.3333 15.3327 17.3333C16.2493 17.3333 17.5327 17.5166 18.816 17.7C18.0827 18.6166 17.716 19.7166 17.3493 21C16.616 21 16.066 20.8166 15.3327 20.8166C9.83268 20.8166 4.14935 23.5666 4.14935 24.6666V26.6833H18.0827C18.6327 28.15 19.7327 29.25 20.8327 30.1666Z" fill="white"/>
</svg>
