<svg width="39" height="39" viewBox="0 0 39 39" fill="none" xmlns="http://www.w3.org/2000/svg">
<path d="M2.56496 11.4486L35.4536 2.23887C35.6352 2.18805 35.8272 2.18651 36.0096 2.2344C36.1921 2.2823 36.3585 2.3779 36.4917 2.51139C36.625 2.64488 36.7204 2.81145 36.768 2.99398C36.8156 3.17651 36.8137 3.36842 36.7626 3.55L27.555 36.4365C27.4964 36.648 27.3738 36.8363 27.204 36.9753C27.0341 37.1143 26.8254 37.1974 26.6065 37.213C26.3875 37.2286 26.1692 37.176 25.9813 37.0624C25.7935 36.9489 25.6454 36.78 25.5575 36.5789L18.6555 20.8921C18.5489 20.6484 18.3548 20.4535 18.1115 20.346L2.42471 13.444C2.22357 13.3562 2.05454 13.2083 1.94084 13.0207C1.82714 12.833 1.77435 12.6147 1.78972 12.3957C1.80509 12.1768 1.88787 11.968 2.02668 11.7981C2.16549 11.6281 2.35353 11.5074 2.56496 11.4486Z" stroke="white" stroke-width="3" stroke-linecap="round" stroke-linejoin="round"/>
</svg>
