<svg width="39" height="32" viewBox="0 0 39 32" fill="none" xmlns="http://www.w3.org/2000/svg">
<path d="M26.5566 0C27.6011 3.549e-05 28.6249 0.290876 29.5134 0.839942C30.4019 1.38901 31.12 2.17461 31.5872 3.10875L34.1803 8.29313C34.6378 8.10563 35.0935 7.91625 35.536 7.69687C35.981 7.47459 36.4962 7.43821 36.9681 7.59574C37.44 7.75327 37.8299 8.09181 38.0522 8.53688C38.2745 8.98194 38.3109 9.49708 38.1534 9.96897C37.9958 10.4409 37.6573 10.8308 37.2122 11.0531C36.286 11.5144 35.8622 11.6569 35.8622 11.6569L37.6547 15.2438C38.0466 16.0256 38.2491 16.8862 38.2491 17.76V22.5C38.2503 23.2916 38.0838 24.0744 37.7606 24.7971C37.4374 25.5197 36.9649 26.1657 36.3741 26.6925V29.0625C36.3741 29.8084 36.0778 30.5238 35.5503 31.0512C35.0229 31.5787 34.3075 31.875 33.5616 31.875C32.8157 31.875 32.1003 31.5787 31.5729 31.0512C31.0454 30.5238 30.7491 29.8084 30.7491 29.0625V28.125H8.2491V29.0625C8.2491 29.8084 7.95278 30.5238 7.42534 31.0512C6.89789 31.5787 6.18252 31.875 5.4366 31.875C4.69068 31.875 3.97531 31.5787 3.44786 31.0512C2.92042 30.5238 2.6241 29.8084 2.6241 29.0625V26.6925C1.47285 25.6612 0.749099 24.165 0.749099 22.5V17.76C0.74945 16.8871 0.952942 16.0263 1.34347 15.2456L3.13597 11.6569C2.68183 11.4685 2.23291 11.2678 1.78972 11.055C1.56872 10.9454 1.37152 10.7932 1.20944 10.6072C1.04736 10.4212 0.923578 10.205 0.845194 9.97106C0.766811 9.73713 0.735365 9.49003 0.752659 9.24393C0.769953 8.99782 0.835646 8.75755 0.945974 8.53688C1.17317 8.09412 1.56536 7.75847 2.03788 7.60236C2.5104 7.44626 3.02536 7.48222 3.4716 7.7025C3.91222 7.91625 4.3641 8.10938 4.81785 8.29313L7.41097 3.10875C7.8782 2.17461 8.59629 1.38901 9.48479 0.839942C10.3733 0.290876 11.3971 3.549e-05 12.4416 0H26.5566ZM32.3128 12.945C29.1253 13.9519 24.5897 15 19.4991 15C14.4085 15 9.87285 13.95 6.68535 12.945L4.69785 16.92C4.56717 17.1807 4.49912 17.4684 4.4991 17.76V22.5C4.4991 22.9973 4.69664 23.4742 5.04827 23.8258C5.39991 24.1775 5.87682 24.375 6.3741 24.375H32.6241C33.1214 24.375 33.5983 24.1775 33.9499 23.8258C34.3016 23.4742 34.4991 22.9973 34.4991 22.5V17.76C34.4988 17.469 34.4307 17.182 34.3003 16.9219L32.3128 12.945ZM11.0616 16.875C11.8075 16.875 12.5229 17.1713 13.0503 17.6988C13.5778 18.2262 13.8741 18.9416 13.8741 19.6875C13.8741 20.4334 13.5778 21.1488 13.0503 21.6762C12.5229 22.2037 11.8075 22.5 11.0616 22.5C10.3157 22.5 9.60031 22.2037 9.07286 21.6762C8.54541 21.1488 8.2491 20.4334 8.2491 19.6875C8.2491 18.9416 8.54541 18.2262 9.07286 17.6988C9.60031 17.1713 10.3157 16.875 11.0616 16.875ZM27.9366 16.875C28.6825 16.875 29.3979 17.1713 29.9253 17.6988C30.4528 18.2262 30.7491 18.9416 30.7491 19.6875C30.7491 20.4334 30.4528 21.1488 29.9253 21.6762C29.3979 22.2037 28.6825 22.5 27.9366 22.5C27.1907 22.5 26.4753 22.2037 25.9479 21.6762C25.4204 21.1488 25.1241 20.4334 25.1241 19.6875C25.1241 18.9416 25.4204 18.2262 25.9479 17.6988C26.4753 17.1713 27.1907 16.875 27.9366 16.875ZM26.5566 3.75H12.4416C12.0935 3.75019 11.7523 3.84728 11.4562 4.03041C11.1602 4.21354 10.921 4.47547 10.7653 4.78687L8.3841 9.54375C11.2866 10.4156 15.1979 11.25 19.4991 11.25C23.8004 11.25 27.7116 10.4156 30.6122 9.54375L28.2329 4.78687C28.0772 4.47547 27.838 4.21354 27.542 4.03041C27.2459 3.84728 26.9047 3.75019 26.5566 3.75Z" fill="white"/>
</svg>
