<svg width="34" height="35" viewBox="0 0 34 35" fill="none" xmlns="http://www.w3.org/2000/svg">
<path d="M22.6667 34.5L11.3333 30.5333L2.55 33.9333C1.92037 34.1852 1.33796 34.1147 0.802778 33.7218C0.267592 33.3289 0 32.8013 0 32.1389V5.69444C0 5.28518 0.11837 4.92315 0.355111 4.60833C0.591852 4.29352 0.914222 4.05741 1.32222 3.9L11.3333 0.5L22.6667 4.46667L31.45 1.06667C32.0796 0.814815 32.662 0.885963 33.1972 1.28011C33.7324 1.67426 34 2.20126 34 2.86111V29.3056C34 29.7148 33.8823 30.0769 33.6468 30.3917C33.4113 30.7065 33.0883 30.9426 32.6778 31.1L22.6667 34.5ZM20.7778 29.8722V7.77222L13.2222 5.12778V27.2278L20.7778 29.8722ZM24.5556 29.8722L30.2222 27.9833V5.6L24.5556 7.77222V29.8722ZM3.77778 29.4L9.44444 27.2278V5.12778L3.77778 7.01667V29.4Z" fill="white"/>
</svg>
