<svg width="37" height="37" viewBox="0 0 37 37" fill="none" xmlns="http://www.w3.org/2000/svg">
<g id="material-symbols:monitoring-rounded">
<path id="Vector" d="M4.625 30.8334V29.2917L7.70833 26.2084V30.8334C7.70833 31.2702 7.56033 31.6366 7.26433 31.9326C6.96833 32.2286 6.60244 32.3761 6.16667 32.375C5.72986 32.375 5.36397 32.227 5.069 31.931C4.77403 31.635 4.62603 31.2691 4.625 30.8334ZM10.7917 30.8334V23.125L13.875 20.0417V30.8334C13.875 31.2702 13.727 31.6366 13.431 31.9326C13.135 32.2286 12.7691 32.3761 12.3333 32.375C11.8965 32.375 11.5306 32.227 11.2357 31.931C10.9407 31.635 10.7927 31.2691 10.7917 30.8334ZM16.9583 30.8334V20.0417L20.0417 23.1636V30.8334C20.0417 31.2702 19.8937 31.6366 19.5977 31.9326C19.3017 32.2286 18.9358 32.3761 18.5 32.375C18.0632 32.375 17.6973 32.227 17.4023 31.931C17.1074 31.635 16.9594 31.2691 16.9583 30.8334ZM23.125 30.8334V23.1636L26.2083 20.0802V30.8334C26.2083 31.2702 26.0603 31.6366 25.7643 31.9326C25.4683 32.2286 25.1024 32.3761 24.6667 32.375C24.2299 32.375 23.864 32.227 23.569 31.931C23.274 31.635 23.126 31.2691 23.125 30.8334ZM29.2917 30.8334V16.9584L32.375 13.875V30.8334C32.375 31.2702 32.227 31.6366 31.931 31.9326C31.635 32.2286 31.2691 32.3761 30.8333 32.375C30.3965 32.375 30.0306 32.227 29.7357 31.931C29.4407 31.635 29.2927 31.2691 29.2917 30.8334ZM5.0875 19.5792L13.2198 11.4469C13.8108 10.8559 14.5431 10.5604 15.4167 10.5604C16.2903 10.5604 17.0226 10.8559 17.6135 11.4469L21.5833 15.4167L29.7542 7.24586C30.0625 6.93753 30.4289 6.78953 30.8534 6.80186C31.2778 6.81419 31.6437 6.97504 31.951 7.2844C32.2337 7.59273 32.3688 7.95914 32.3565 8.38361C32.3442 8.80808 32.1962 9.16112 31.9125 9.44273L23.7802 17.575C23.1892 18.166 22.4569 18.4615 21.5833 18.4615C20.7097 18.4615 19.9774 18.166 19.3865 17.575L15.4167 13.6052L7.24583 21.7761C6.9375 22.0844 6.57161 22.2324 6.14817 22.2201C5.72472 22.2077 5.35832 22.0469 5.04896 21.7375C4.76632 21.4292 4.63168 21.0633 4.64504 20.6399C4.6584 20.2164 4.80589 19.8629 5.0875 19.5792Z" fill="white"/>
</g>
</svg>
