<svg width="48" height="48" viewBox="0 0 48 48" fill="none" xmlns="http://www.w3.org/2000/svg">
<g id="streamline:affordable-and-clean-energy-solid" clip-path="url(#clip0_1_780)">
<path id="Vector" fill-rule="evenodd" clip-rule="evenodd" d="M23.5262 0.0479736C24.2082 0.0479736 24.8622 0.318891 25.3445 0.801128C25.8267 1.28336 26.0976 1.93742 26.0976 2.6194V4.85826C26.0976 5.54024 25.8267 6.1943 25.3445 6.67653C24.8622 7.15877 24.2082 7.42969 23.5262 7.42969C22.8442 7.42969 22.1902 7.15877 21.7079 6.67653C21.2257 6.1943 20.9548 5.54024 20.9548 4.85826V2.6194C20.9548 1.93742 21.2257 1.28336 21.7079 0.801128C22.1902 0.318891 22.8442 0.0479736 23.5262 0.0479736ZM38.2279 23.5268C38.2279 25.4579 37.8476 27.3701 37.1086 29.1542C36.3696 30.9384 35.2864 32.5594 33.9209 33.9249C32.5554 35.2904 30.9343 36.3736 29.1502 37.1126C27.3661 37.8516 25.4539 38.232 23.5228 38.232C21.5917 38.232 19.6795 37.8516 17.8954 37.1126C16.1113 36.3736 14.4902 35.2904 13.1247 33.9249C11.7592 32.5594 10.676 30.9384 9.937 29.1542C9.198 27.3701 8.81764 25.4579 8.81764 23.5268C8.81764 19.6268 10.3669 15.8865 13.1247 13.1287C15.8824 10.371 19.6227 8.82169 23.5228 8.82169C27.4228 8.82169 31.1631 10.371 33.9209 13.1287C36.6786 15.8865 38.2279 19.6268 38.2279 23.5268ZM26.0976 42.192C26.0976 41.51 25.8267 40.8559 25.3445 40.3737C24.8622 39.8915 24.2082 39.6205 23.5262 39.6205C22.8442 39.6205 22.1902 39.8915 21.7079 40.3737C21.2257 40.8559 20.9548 41.51 20.9548 42.192V44.4308C20.9548 45.1128 21.2257 45.7669 21.7079 46.2491C22.1902 46.7313 22.8442 47.0023 23.5262 47.0023C24.2082 47.0023 24.8622 46.7313 25.3445 46.2491C25.8267 45.7669 26.0976 45.1128 26.0976 44.4308V42.192ZM0.0507812 23.5268C0.0507813 22.8448 0.321699 22.1908 0.803935 21.7086C1.28617 21.2263 1.94022 20.9554 2.62221 20.9554H4.85764C5.53962 20.9554 6.19368 21.2263 6.67591 21.7086C7.15815 22.1908 7.42907 22.8448 7.42907 23.5268C7.42907 24.2088 7.15815 24.8629 6.67591 25.3451C6.19368 25.8273 5.53962 26.0983 4.85764 26.0983H2.62221C1.94022 26.0983 1.28617 25.8273 0.803935 25.3451C0.321699 24.8629 0.0507813 24.2088 0.0507812 23.5268ZM42.1948 20.9554C41.5128 20.9554 40.8587 21.2263 40.3765 21.7086C39.8943 22.1908 39.6233 22.8448 39.6233 23.5268C39.6233 24.2088 39.8943 24.8629 40.3765 25.3451C40.8587 25.8273 41.5128 26.0983 42.1948 26.0983H44.4302C45.1122 26.0983 45.7662 25.8273 46.2485 25.3451C46.7307 24.8629 47.0016 24.2088 47.0016 23.5268C47.0016 22.8448 46.7307 22.1908 46.2485 21.7086C45.7662 21.2263 45.1122 20.9554 44.4302 20.9554H42.1948ZM40.2748 6.77483C40.7563 7.25697 41.0268 7.91054 41.0268 8.59197C41.0268 9.27341 40.7563 9.92697 40.2748 10.4091L38.7868 11.9005C38.5497 12.1463 38.266 12.3423 37.9524 12.4772C37.6387 12.6121 37.3013 12.6832 36.9599 12.6863C36.6185 12.6895 36.2798 12.6245 35.9638 12.4954C35.6477 12.3663 35.3605 12.1755 35.1189 11.9341C34.8774 11.6928 34.6863 11.4058 34.5569 11.0898C34.4274 10.7739 34.3622 10.4353 34.365 10.0939C34.3678 9.75245 34.4386 9.41499 34.5732 9.1012C34.7078 8.78742 34.9036 8.50358 35.1491 8.26626L36.6371 6.77483C37.1192 6.29329 37.7728 6.02281 38.4542 6.02281C39.1356 6.02281 39.7926 6.29329 40.2748 6.77483ZM11.8965 38.784C12.1491 38.5486 12.3518 38.2647 12.4923 37.9492C12.6329 37.6338 12.7084 37.2933 12.7145 36.9481C12.7206 36.6028 12.6571 36.2598 12.5278 35.9396C12.3984 35.6195 12.2059 35.3286 11.9618 35.0844C11.7176 34.8402 11.4267 34.6477 11.1065 34.5184C10.7864 34.3891 10.4434 34.3256 10.0981 34.3317C9.75286 34.3378 9.41236 34.4133 9.09694 34.5539C8.78151 34.6944 8.49762 34.897 8.26221 35.1497L6.77421 36.6343C6.30557 37.119 6.04607 37.7684 6.05161 38.4427C6.05715 39.1169 6.32728 39.762 6.80382 40.239C7.28036 40.716 7.92519 40.9867 8.59941 40.9929C9.27363 40.999 9.9233 40.7402 10.4085 40.272L11.8965 38.784ZM6.77764 6.77483C7.25978 6.29329 7.91335 6.02281 8.59478 6.02281C9.27621 6.02281 9.92978 6.29329 10.4119 6.77483L11.8999 8.26283C12.3541 8.75029 12.6014 9.39502 12.5897 10.0612C12.5779 10.7274 12.308 11.363 11.8369 11.8341C11.3658 12.3052 10.7302 12.5751 10.064 12.5869C9.39783 12.5986 8.75309 12.3513 8.26564 11.8971L6.77764 10.4125C6.29609 9.9304 6.02561 9.27683 6.02561 8.5954C6.02561 7.91397 6.29609 7.2604 6.77764 6.77826V6.77483ZM38.7868 35.1497C38.5497 34.904 38.266 34.708 37.9524 34.573C37.6387 34.4381 37.3013 34.367 36.9599 34.3639C36.6185 34.3608 36.2798 34.4257 35.9638 34.5548C35.6477 34.684 35.3605 34.8748 35.1189 35.1161C34.8774 35.3574 34.6863 35.6444 34.5569 35.9604C34.4274 36.2763 34.3622 36.6149 34.365 36.9564C34.3678 37.2978 34.4386 37.6352 34.5732 37.949C34.7078 38.2628 34.9036 38.5467 35.1491 38.784L36.6371 40.272C37.1245 40.7262 37.7693 40.9735 38.4354 40.9617C39.1016 40.95 39.7372 40.6801 40.2083 40.209C40.6795 39.7378 40.9493 39.1022 40.9611 38.4361C40.9728 37.7699 40.7256 37.1251 40.2714 36.6377L38.7868 35.1497ZM23.5296 12.1577C24.7125 12.1577 25.6725 13.1177 25.6725 14.3005V20.3554C25.6725 20.9237 25.4467 21.4688 25.0449 21.8706C24.643 22.2725 24.098 22.4983 23.5296 22.4983C22.9613 22.4983 22.4163 22.2725 22.0144 21.8706C21.6125 21.4688 21.3868 20.9237 21.3868 20.3554V14.3005C21.3868 13.1177 22.3468 12.1577 23.5296 12.1577ZM18.4074 19.6663C18.5764 19.4411 18.6995 19.1849 18.7695 18.9122C18.8396 18.6395 18.8552 18.3557 18.8156 18.077C18.776 17.7983 18.6818 17.5301 18.5385 17.2877C18.3952 17.0454 18.2056 16.8336 17.9805 16.6645C17.7554 16.4955 17.4992 16.3724 17.2265 16.3024C16.9538 16.2323 16.67 16.2167 16.3912 16.2563C16.1125 16.2959 15.8443 16.3901 15.602 16.5334C15.3596 16.6767 15.1478 16.8663 14.9788 17.0914C13.7887 18.6781 13.0641 20.5649 12.8859 22.5403C12.7078 24.5157 13.0833 26.5016 13.9703 28.2756C14.8573 30.0497 16.2208 31.5416 17.908 32.5844C19.5952 33.6271 21.5394 34.1794 23.5228 34.1794C25.5062 34.1794 27.4504 33.6271 29.1376 32.5844C30.8248 31.5416 32.1883 30.0497 33.0753 28.2756C33.9623 26.5016 34.3377 24.5157 34.1596 22.5403C33.9815 20.5649 33.2568 18.6781 32.0668 17.0914C31.7258 16.6367 31.2181 16.3362 30.6555 16.2558C30.0929 16.1754 29.5214 16.3218 29.0668 16.6628C28.6121 17.0038 28.3115 17.5115 28.2312 18.0741C28.1508 18.6367 28.2972 19.2082 28.6382 19.6628C29.3501 20.613 29.7835 21.7425 29.8897 22.925C29.9959 24.1075 29.7708 25.2962 29.2396 26.358C28.7085 27.4198 27.8921 28.3127 26.8821 28.9368C25.8721 29.5609 24.7083 29.8914 23.5211 29.8914C22.3338 29.8914 21.17 29.5609 20.16 28.9368C19.15 28.3127 18.3337 27.4198 17.8025 26.358C17.2713 25.2962 17.0462 24.1075 17.1524 22.925C17.2587 21.7425 17.692 20.613 18.4039 19.6628L18.4074 19.6663Z" fill="white"/>
</g>
<defs>
<clipPath id="clip0_1_780">
<rect width="48" height="48" fill="white"/>
</clipPath>
</defs>
</svg>
