<svg width="25" height="25" viewBox="0 0 25 25" fill="none" xmlns="http://www.w3.org/2000/svg">
<path id="Vector" d="M12.0312 24.8268C11.2292 24.8268 10.4213 24.7359 9.6075 24.5541C8.79375 24.3723 7.96104 24.1108 7.10938 23.7696C7.40104 20.8286 8.25174 18.0821 9.66146 15.53C11.0712 12.9779 12.8819 10.7296 15.0938 8.78518C12.4201 10.1463 10.1053 11.9449 8.14917 14.181C6.19306 16.4171 4.82563 18.9692 4.04688 21.8373C3.94965 21.7643 3.85875 21.6856 3.77417 21.601L3.5 21.3268C2.35764 20.1845 1.48896 18.9084 0.893958 17.4987C0.298958 16.089 0.000972222 14.6185 0 13.0873C0 11.4345 0.328125 9.85462 0.984375 8.34768C1.64062 6.84073 2.55208 5.50393 3.71875 4.33726C5.6875 2.36851 8.23958 1.08664 11.375 0.491638C14.5104 -0.103361 18.9097 -0.158293 24.5729 0.326846C25.0104 6.13587 24.9375 10.5658 24.3542 13.6166C23.7708 16.6675 22.5069 19.1646 20.5625 21.1081C19.3715 22.2991 18.0406 23.2168 16.5696 23.8614C15.0986 24.506 13.5858 24.8278 12.0312 24.8268Z" fill="white"/>
</svg>
