<svg width="36" height="35" viewBox="0 0 36 35" fill="none" xmlns="http://www.w3.org/2000/svg">
<g id="ri:cloud-windy-line">
<path id="Vector" d="M20.9173 26.25V23.3334H26.0215C26.863 23.3333 27.6914 23.1251 28.433 22.7274C29.1746 22.3297 29.8064 21.7548 30.2721 21.0539C30.7378 20.3529 31.023 19.5478 31.1022 18.71C31.1815 17.8722 31.0524 17.0279 30.7264 16.252C30.4005 15.4762 29.8877 14.793 29.2339 14.2633C28.58 13.7336 27.8053 13.3737 26.9788 13.2158C26.1522 13.0578 25.2994 13.1067 24.4963 13.358C23.6932 13.6093 22.9647 14.0553 22.3757 14.6563V14.5834C22.3757 12.2627 21.4538 10.0371 19.8128 8.39619C18.1719 6.75525 15.9463 5.83338 13.6257 5.83338C11.305 5.83338 9.07941 6.75525 7.43847 8.39619C5.79753 10.0371 4.87565 12.2627 4.87565 14.5834V14.5936H1.95899V14.5834C1.95678 11.8609 2.90676 9.22336 4.64441 7.12754C6.38207 5.03172 8.79797 3.60959 11.4737 3.10742C14.1495 2.60526 16.9166 3.0547 19.2959 4.37789C21.6752 5.70109 23.5169 7.81472 24.5019 10.3528C25.5991 10.1417 26.7282 10.1622 27.817 10.413C28.9058 10.6637 29.9302 11.1392 30.8245 11.8089C31.7188 12.4786 32.4634 13.3277 33.0104 14.3019C33.5575 15.2761 33.895 16.3538 34.0013 17.466C34.1076 18.5782 33.9804 19.7004 33.6278 20.7605C33.2752 21.8207 32.705 22.7955 31.9537 23.6225C31.2025 24.4495 30.2867 25.1104 29.2651 25.5629C28.2436 26.0153 27.1388 26.2494 26.0215 26.25H20.9173ZM9.25066 29.1667H23.834V32.0834H9.25066V29.1667ZM9.25066 17.5H20.9173V20.4167H9.25066V17.5ZM3.41732 23.3334H18.0007V26.25H3.41732V23.3334Z" fill="#F8F8F8"/>
</g>
</svg>
