<svg width="44" height="43" viewBox="0 0 44 43" fill="none" xmlns="http://www.w3.org/2000/svg">
<g id="ic:outline-oil-barrel">
<path id="Vector" d="M16.625 23.3813C16.625 26.3017 19.0258 28.6667 22 28.6667C24.9742 28.6667 27.375 26.3017 27.375 23.3813C27.375 21.0342 26.4254 20.3533 22 15.2292C17.5567 20.3892 16.625 21.0521 16.625 23.3813Z" fill="#F8F8F8"/>
<path id="Vector_2" d="M36.3333 23.2917C37.3187 23.2917 38.125 22.4854 38.125 21.5C38.125 20.5146 37.3187 19.7083 36.3333 19.7083H34.5417V8.95833H36.3333C37.3187 8.95833 38.125 8.15208 38.125 7.16667C38.125 6.18125 37.3187 5.375 36.3333 5.375H7.66667C6.68125 5.375 5.875 6.18125 5.875 7.16667C5.875 8.15208 6.68125 8.95833 7.66667 8.95833H9.45833V19.7083H7.66667C6.68125 19.7083 5.875 20.5146 5.875 21.5C5.875 22.4854 6.68125 23.2917 7.66667 23.2917H9.45833V34.0417H7.66667C6.68125 34.0417 5.875 34.8479 5.875 35.8333C5.875 36.8187 6.68125 37.625 7.66667 37.625H36.3333C37.3187 37.625 38.125 36.8187 38.125 35.8333C38.125 34.8479 37.3187 34.0417 36.3333 34.0417H34.5417V23.2917H36.3333ZM30.9583 34.0417H13.0417V23.2917C14.0271 23.2917 14.8333 22.4854 14.8333 21.5C14.8333 20.5146 14.0271 19.7083 13.0417 19.7083V8.95833H30.9583V19.7083C29.9729 19.7083 29.1667 20.5146 29.1667 21.5C29.1667 22.4854 29.9729 23.2917 30.9583 23.2917V34.0417Z" fill="#F8F8F8"/>
</g>
</svg>
