<svg width="48" height="49" viewBox="0 0 48 49" fill="none" xmlns="http://www.w3.org/2000/svg">
<g id="ic:round-severe-cold">
<path id="Vector" d="M41.3327 4.08337C40.2098 4.08337 39.291 5.00212 39.291 6.12504V12.25C39.291 13.373 40.2098 14.2917 41.3327 14.2917C42.4556 14.2917 43.3743 13.373 43.3743 12.25V6.12504C43.3743 5.00212 42.4556 4.08337 41.3327 4.08337Z" fill="white"/>
<path id="Vector_2" d="M41.3327 20.4167C42.4603 20.4167 43.3743 19.5026 43.3743 18.375C43.3743 17.2475 42.4603 16.3334 41.3327 16.3334C40.2051 16.3334 39.291 17.2475 39.291 18.375C39.291 19.5026 40.2051 20.4167 41.3327 20.4167Z" fill="white"/>
<path id="Vector_3" d="M25.0007 21.2537L31.7177 14.5366C31.9068 14.3476 32.0567 14.1232 32.159 13.8762C32.2613 13.6293 32.3139 13.3646 32.3139 13.0973C32.3139 12.8299 32.2613 12.5652 32.159 12.3183C32.0567 12.0713 31.9068 11.8469 31.7177 11.6579C31.5287 11.4689 31.3043 11.3189 31.0573 11.2166C30.8104 11.1143 30.5457 11.0617 30.2784 11.0617C30.011 11.0617 29.7463 11.1143 29.4994 11.2166C29.2524 11.3189 29.028 11.4689 28.839 11.6579L25.0007 15.4962V10.2083C25.0007 9.08538 24.0819 8.16663 22.959 8.16663C21.8361 8.16663 20.9173 9.08538 20.9173 10.2083V15.4962L17.079 11.6579C16.6972 11.2761 16.1795 11.0617 15.6396 11.0617C15.0997 11.0617 14.582 11.2761 14.2002 11.6579C13.8185 12.0396 13.604 12.5574 13.604 13.0973C13.604 13.6371 13.8185 14.1549 14.2002 14.5366L20.9173 21.2537V24.5H17.6711L10.954 17.7829C10.765 17.5939 10.5406 17.4439 10.2936 17.3416C10.0466 17.2393 9.78193 17.1867 9.51461 17.1867C9.24729 17.1867 8.98259 17.2393 8.73563 17.3416C8.48866 17.4439 8.26426 17.5939 8.07523 17.7829C7.88621 17.9719 7.73627 18.1963 7.63398 18.4433C7.53168 18.6902 7.47903 18.9549 7.47903 19.2223C7.47903 19.4896 7.53168 19.7543 7.63398 20.0012C7.73627 20.2482 7.88621 20.4726 8.07523 20.6616L11.9136 24.5H6.62565C5.50273 24.5 4.58398 25.4187 4.58398 26.5416C4.58398 27.6645 5.50273 28.5833 6.62565 28.5833H11.9136L8.07523 32.4216C7.69349 32.8034 7.47903 33.3211 7.47903 33.861C7.47903 34.4009 7.69349 34.9186 8.07523 35.3004C8.45698 35.6821 8.97474 35.8966 9.51461 35.8966C10.0545 35.8966 10.5722 35.6821 10.954 35.3004L17.6711 28.5833H20.9173V31.8295L14.2002 38.5466C14.0112 38.7356 13.8613 38.9601 13.759 39.207C13.6567 39.454 13.604 39.7187 13.604 39.986C13.604 40.2533 13.6567 40.518 13.759 40.765C13.8613 41.012 14.0112 41.2364 14.2002 41.4254C14.3893 41.6144 14.6137 41.7643 14.8606 41.8666C15.1076 41.9689 15.3723 42.0216 15.6396 42.0216C15.9069 42.0216 16.1716 41.9689 16.4186 41.8666C16.6656 41.7643 16.89 41.6144 17.079 41.4254L20.9173 37.587V42.875C20.9173 43.9979 21.8361 44.9166 22.959 44.9166C24.0819 44.9166 25.0007 43.9979 25.0007 42.875V37.587L28.839 41.4254C29.028 41.6144 29.2524 41.7643 29.4994 41.8666C29.7463 41.9689 30.011 42.0216 30.2784 42.0216C30.5457 42.0216 30.8104 41.9689 31.0573 41.8666C31.3043 41.7643 31.5287 41.6144 31.7177 41.4254C31.9068 41.2364 32.0567 41.012 32.159 40.765C32.2613 40.518 32.3139 40.2533 32.3139 39.986C32.3139 39.7187 32.2613 39.454 32.159 39.207C32.0567 38.9601 31.9068 38.7356 31.7177 38.5466L25.0007 31.8295V28.5833H28.2469L34.964 35.3004C35.153 35.4894 35.3774 35.6393 35.6244 35.7416C35.8713 35.8439 36.136 35.8966 36.4034 35.8966C36.6707 35.8966 36.9354 35.8439 37.1823 35.7416C37.4293 35.6393 37.6537 35.4894 37.8427 35.3004C38.0318 35.1114 38.1817 34.887 38.284 34.64C38.3863 34.393 38.4389 34.1283 38.4389 33.861C38.4389 33.5937 38.3863 33.329 38.284 33.082C38.1817 32.8351 38.0318 32.6106 37.8427 32.4216L34.0044 28.5833H39.2923C40.4152 28.5833 41.334 27.6645 41.334 26.5416C41.334 25.4187 40.4152 24.5 39.2923 24.5H25.0007V21.2537Z" fill="white"/>
</g>
</svg>
