<svg width="39" height="38" viewBox="0 0 39 38" fill="none" xmlns="http://www.w3.org/2000/svg">
<g id="streamline:wind-flow-1-solid" clip-path="url(#clip0_1_679)">
<path id="Vector" fill-rule="evenodd" clip-rule="evenodd" d="M21.9286 4.71429C21.9286 4.25963 22.1092 3.82359 22.4307 3.5021C22.7522 3.18061 23.1882 3 23.6429 3C25.1584 3 26.6118 3.60204 27.6835 4.67368C28.7551 5.74531 29.3571 7.19876 29.3571 8.71429C29.3571 10.2298 28.7551 11.6833 27.6835 12.7549C26.6118 13.8265 25.1584 14.4286 23.6429 14.4286H8.21429C7.75963 14.4286 7.32359 14.248 7.0021 13.9265C6.68061 13.605 6.5 13.1689 6.5 12.7143C6.5 12.2596 6.68061 11.8236 7.0021 11.5021C7.32359 11.1806 7.75963 11 8.21429 11H23.6429C24.2491 11 24.8304 10.7592 25.2591 10.3305C25.6878 9.90188 25.9286 9.3205 25.9286 8.71429C25.9286 8.10808 25.6878 7.5267 25.2591 7.09804C24.8304 6.66939 24.2491 6.42857 23.6429 6.42857C23.1882 6.42857 22.7522 6.24796 22.4307 5.92647C22.1092 5.60498 21.9286 5.16894 21.9286 4.71429ZM11.0714 19C11.0714 18.5453 11.252 18.1093 11.5735 17.7878C11.895 17.4663 12.3311 17.2857 12.7857 17.2857H32.7857C34.3012 17.2857 35.7547 17.8878 36.8263 18.9594C37.898 20.031 38.5 21.4845 38.5 23C38.5 24.5155 37.898 25.969 36.8263 27.0406C35.7547 28.1122 34.3012 28.7143 32.7857 28.7143C32.3311 28.7143 31.895 28.5337 31.5735 28.2122C31.252 27.8907 31.0714 27.4547 31.0714 27C31.0714 26.5453 31.252 26.1093 31.5735 25.7878C31.895 25.4663 32.3311 25.2857 32.7857 25.2857C33.3919 25.2857 33.9733 25.0449 34.402 24.6162C34.8306 24.1876 35.0714 23.6062 35.0714 23C35.0714 22.3938 34.8306 21.8124 34.402 21.3838C33.9733 20.9551 33.3919 20.7143 32.7857 20.7143H12.7857C12.3311 20.7143 11.895 20.5337 11.5735 20.2122C11.252 19.8907 11.0714 19.4547 11.0714 19ZM10.5 23.5714C10.0453 23.5714 9.60931 23.752 9.28782 24.0735C8.96633 24.395 8.78571 24.8311 8.78571 25.2857C8.78571 25.7404 8.96633 26.1764 9.28782 26.4979C9.60931 26.8194 10.0453 27 10.5 27H23.0714C23.6776 27 24.259 27.2408 24.6877 27.6695C25.1163 28.0981 25.3571 28.6795 25.3571 29.2857C25.3571 29.8919 25.1163 30.4733 24.6877 30.902C24.259 31.3306 23.6776 31.5714 23.0714 31.5714C22.6168 31.5714 22.1807 31.752 21.8592 32.0735C21.5378 32.395 21.3571 32.8311 21.3571 33.2857C21.3571 33.7404 21.5378 34.1764 21.8592 34.4979C22.1807 34.8194 22.6168 35 23.0714 35C24.587 35 26.0404 34.398 27.112 33.3263C28.1837 32.2547 28.7857 30.8012 28.7857 29.2857C28.7857 27.7702 28.1837 26.3167 27.112 25.2451C26.0404 24.1735 24.587 23.5714 23.0714 23.5714H10.5Z" fill="white"/>
</g>
<defs>
<clipPath id="clip0_1_679">
<rect width="38" height="38" fill="white" transform="translate(0.5)"/>
</clipPath>
</defs>
</svg>
