<svg width="39" height="39" viewBox="0 0 39 39" fill="none" xmlns="http://www.w3.org/2000/svg">
<g id="vuesax/linear/cpu-charge">
<g id="cpu-charge">
<path id="Vector" d="M15.6 32.5H23.4C29.9 32.5 32.5 29.9 32.5 23.4V15.6C32.5 9.1 29.9 6.5 23.4 6.5H15.6C9.1 6.5 6.5 9.1 6.5 15.6V23.4C6.5 29.9 9.1 32.5 15.6 32.5Z" stroke="white" stroke-width="3" stroke-linecap="round" stroke-linejoin="round"/>
<path id="Vector_2" d="M17.0625 27.625H21.9375C26 27.625 27.625 26 27.625 21.9375V17.0625C27.625 13 26 11.375 21.9375 11.375H17.0625C13 11.375 11.375 13 11.375 17.0625V21.9375C11.375 26 13 27.625 17.0625 27.625Z" stroke="white" stroke-width="3" stroke-linecap="round" stroke-linejoin="round"/>
<path id="Vector_3" d="M13.0162 6.5V3.25" stroke="white" stroke-width="3" stroke-linecap="round" stroke-linejoin="round"/>
<path id="Vector_4" d="M19.5 6.5V3.25" stroke="white" stroke-width="3" stroke-linecap="round" stroke-linejoin="round"/>
<path id="Vector_5" d="M26 6.5V3.25" stroke="white" stroke-width="3" stroke-linecap="round" stroke-linejoin="round"/>
<path id="Vector_6" d="M32.5 13H35.75" stroke="white" stroke-width="3" stroke-linecap="round" stroke-linejoin="round"/>
<path id="Vector_7" d="M32.5 19.5H35.75" stroke="white" stroke-width="3" stroke-linecap="round" stroke-linejoin="round"/>
<path id="Vector_8" d="M32.5 26H35.75" stroke="white" stroke-width="3" stroke-linecap="round" stroke-linejoin="round"/>
<path id="Vector_9" d="M26 32.5V35.75" stroke="white" stroke-width="3" stroke-linecap="round" stroke-linejoin="round"/>
<path id="Vector_10" d="M19.5162 32.5V35.75" stroke="white" stroke-width="3" stroke-linecap="round" stroke-linejoin="round"/>
<path id="Vector_11" d="M13.0162 32.5V35.75" stroke="white" stroke-width="3" stroke-linecap="round" stroke-linejoin="round"/>
<path id="Vector_12" d="M3.25 13H6.5" stroke="white" stroke-width="3" stroke-linecap="round" stroke-linejoin="round"/>
<path id="Vector_13" d="M3.25 19.5H6.5" stroke="white" stroke-width="3" stroke-linecap="round" stroke-linejoin="round"/>
<path id="Vector_14" d="M3.25 26H6.5" stroke="white" stroke-width="3" stroke-linecap="round" stroke-linejoin="round"/>
<path id="Vector_15" d="M19.5 15.7625L17.9725 18.4275C17.6312 19.0125 17.9075 19.5 18.59 19.5H20.41C21.0925 19.5 21.3687 19.9875 21.0275 20.5725L19.5 23.2375" stroke="white" stroke-width="3" stroke-linecap="round" stroke-linejoin="round"/>
</g>
</g>
</svg>
