<svg width="33" height="34" viewBox="0 0 33 34" fill="none" xmlns="http://www.w3.org/2000/svg">
<g id="mingcute:truck-line" clip-path="url(#clip0_1_734)">
<g id="Group">
<path id="Vector" d="M19.944 5.66669C20.7102 5.66669 21.445 5.9652 21.9868 6.49655C22.5286 7.0279 22.8329 7.74857 22.8329 8.50002V9.91669H25.0285C25.4615 9.91674 25.8889 10.0123 26.2792 10.1962C26.6695 10.3801 27.0126 10.6477 27.2833 10.9792L29.421 13.6014C29.8314 14.1039 30.055 14.7285 30.0551 15.3723V21.25C30.0551 22.0015 29.7508 22.7221 29.209 23.2535C28.6672 23.7848 27.9324 24.0834 27.1663 24.0834C27.1663 25.2105 26.7097 26.2915 25.8971 27.0886C25.0844 27.8856 23.9822 28.3334 22.8329 28.3334C21.6837 28.3334 20.5815 27.8856 19.7688 27.0886C18.9561 26.2915 18.4996 25.2105 18.4996 24.0834H12.7218C12.7218 24.6415 12.6097 25.1941 12.392 25.7098C12.1742 26.2254 11.855 26.6939 11.4526 27.0886C11.0502 27.4832 10.5725 27.7963 10.0468 28.0098C9.52103 28.2234 8.95754 28.3334 8.38848 28.3334C7.81942 28.3334 7.25593 28.2234 6.73019 28.0098C6.20444 27.7963 5.72674 27.4832 5.32435 27.0886C4.92197 26.6939 4.60277 26.2254 4.385 25.7098C4.16723 25.1941 4.05515 24.6415 4.05515 24.0834C3.28897 24.0834 2.55417 23.7848 2.0124 23.2535C1.47062 22.7221 1.16626 22.0015 1.16626 21.25V8.50002C1.16626 7.74857 1.47062 7.0279 2.0124 6.49655C2.55417 5.9652 3.28897 5.66669 4.05515 5.66669H19.944ZM8.38848 22.6667C8.00539 22.6667 7.63799 22.8159 7.36711 23.0816C7.09622 23.3473 6.94404 23.7076 6.94404 24.0834C6.94404 24.4591 7.09622 24.8194 7.36711 25.0851C7.63799 25.3508 8.00539 25.5 8.38848 25.5C8.77157 25.5 9.13897 25.3508 9.40986 25.0851C9.68074 24.8194 9.83293 24.4591 9.83293 24.0834C9.83293 23.7076 9.68074 23.3473 9.40986 23.0816C9.13897 22.8159 8.77157 22.6667 8.38848 22.6667ZM22.8329 22.6667C22.4498 22.6667 22.0824 22.8159 21.8115 23.0816C21.5407 23.3473 21.3885 23.7076 21.3885 24.0834C21.3885 24.4591 21.5407 24.8194 21.8115 25.0851C22.0824 25.3508 22.4498 25.5 22.8329 25.5C23.216 25.5 23.5834 25.3508 23.8543 25.0851C24.1252 24.8194 24.2774 24.4591 24.2774 24.0834C24.2774 23.7076 24.1252 23.3473 23.8543 23.0816C23.5834 22.8159 23.216 22.6667 22.8329 22.6667ZM19.944 8.50002H4.05515V21.25H5.1587C5.54936 20.8207 6.02494 20.4737 6.55654 20.2301C7.08814 19.9866 7.66467 19.8516 8.25112 19.8333C8.83756 19.815 9.42168 19.9138 9.96798 20.1238C10.5143 20.3337 11.0114 20.6504 11.429 21.0545L11.6183 21.25H19.6031L19.7693 21.0786L19.944 20.9157V8.50002ZM25.0285 12.75H22.8329V19.8334C24.0174 19.8334 25.0906 20.3009 25.8735 21.0545L26.0627 21.25H27.1663V15.3709L25.0285 12.75Z" fill="#F8F8F8"/>
</g>
</g>
<defs>
<clipPath id="clip0_1_734">
<rect width="32" height="34" fill="white" transform="translate(0.5)"/>
</clipPath>
</defs>
</svg>
