<svg width="36" height="35" viewBox="0 0 36 35" fill="none" xmlns="http://www.w3.org/2000/svg">
<g id="carbon:gui-management">
<path id="Vector" d="M33.3125 26.25V24.0625H31.0145C30.8735 23.3778 30.6016 22.7268 30.2139 22.1452L31.8436 20.5155L30.297 18.9689L28.6673 20.5986C28.0857 20.2109 27.4347 19.939 26.75 19.798V17.5H24.5625V19.798C23.8778 19.939 23.2268 20.2109 22.6452 20.5986L21.0155 18.9689L19.4689 20.5155L21.0986 22.1452C20.7109 22.7268 20.439 23.3778 20.298 24.0625H18V26.25H20.298C20.439 26.9347 20.7109 27.5857 21.0986 28.1673L19.4689 29.797L21.0155 31.3436L22.6452 29.7139C23.2268 30.1016 23.8778 30.3735 24.5625 30.5145V32.8125H26.75V30.5145C27.4347 30.3735 28.0857 30.1016 28.6673 29.7139L30.297 31.3436L31.8436 29.797L30.2139 28.1673C30.6016 27.5857 30.8735 26.9347 31.0145 26.25H33.3125ZM25.6562 28.4375C25.0073 28.4375 24.3729 28.2451 23.8333 27.8845C23.2937 27.524 22.8731 27.0115 22.6248 26.4119C22.3764 25.8124 22.3114 25.1526 22.438 24.5161C22.5647 23.8796 22.8772 23.2949 23.3361 22.8361C23.7949 22.3772 24.3796 22.0647 25.0161 21.938C25.6526 21.8114 26.3124 21.8764 26.9119 22.1248C27.5115 22.3731 28.024 22.7937 28.3845 23.3333C28.7451 23.8729 28.9375 24.5073 28.9375 25.1562C28.9366 26.0262 28.5907 26.8603 27.9755 27.4755C27.3603 28.0907 26.5262 28.4366 25.6562 28.4375Z" fill="#F8F8F8"/>
<path id="Vector_2" d="M31.125 4.375H4.875C4.29502 4.37558 3.73895 4.60623 3.32884 5.01634C2.91873 5.42645 2.68808 5.98252 2.6875 6.5625V28.4375C2.68808 29.0175 2.91873 29.5735 3.32884 29.9837C3.73895 30.3938 4.29502 30.6244 4.875 30.625H15.8125V28.4375H4.875V13.125H31.125V16.4062H33.3125V6.5625C33.3119 5.98252 33.0813 5.42645 32.6712 5.01634C32.261 4.60623 31.705 4.37558 31.125 4.375ZM31.125 10.9375H4.875V6.5625H31.125V10.9375Z" fill="#F8F8F8"/>
<path id="Vector_3" d="M22.375 9.84375C22.9791 9.84375 23.4688 9.35406 23.4688 8.75C23.4688 8.14594 22.9791 7.65625 22.375 7.65625C21.7709 7.65625 21.2812 8.14594 21.2812 8.75C21.2812 9.35406 21.7709 9.84375 22.375 9.84375Z" fill="#F8F8F8"/>
<path id="Vector_4" d="M25.6562 9.84375C26.2603 9.84375 26.75 9.35406 26.75 8.75C26.75 8.14594 26.2603 7.65625 25.6562 7.65625C25.0522 7.65625 24.5625 8.14594 24.5625 8.75C24.5625 9.35406 25.0522 9.84375 25.6562 9.84375Z" fill="#F8F8F8"/>
<path id="Vector_5" d="M28.9375 9.84375C29.5416 9.84375 30.0312 9.35406 30.0312 8.75C30.0312 8.14594 29.5416 7.65625 28.9375 7.65625C28.3334 7.65625 27.8438 8.14594 27.8438 8.75C27.8438 9.35406 28.3334 9.84375 28.9375 9.84375Z" fill="#F8F8F8"/>
</g>
</svg>
