<svg width="41" height="40" viewBox="0 0 41 40" fill="none" xmlns="http://www.w3.org/2000/svg">
<g id="fluent-emoji-high-contrast:mens-room">
<g id="Group">
<path id="Vector" d="M21.8086 13.125C22.5545 13.125 23.2699 12.8287 23.7974 12.3012C24.3248 11.7738 24.6211 11.0584 24.6211 10.3125C24.6211 9.56658 24.3248 8.85121 23.7974 8.32376C23.2699 7.79632 22.5545 7.5 21.8086 7.5C21.0627 7.5 20.3473 7.79632 19.8199 8.32376C19.2924 8.85121 18.9961 9.56658 18.9961 10.3125C18.9961 11.0584 19.2924 11.7738 19.8199 12.3012C20.3473 12.8287 21.0627 13.125 21.8086 13.125ZM25.5571 14.1802H18.1929C16.8091 14.1802 15.6875 15.3019 15.6875 16.6856V22.4861C15.6875 23.0925 16.1532 23.6134 16.7585 23.6415C16.9106 23.6488 17.0626 23.6252 17.2054 23.572C17.3481 23.5188 17.4785 23.4372 17.5887 23.3321C17.699 23.227 17.7867 23.1006 17.8467 22.9606C17.9066 22.8206 17.9375 22.6699 17.9375 22.5176V17.5991C17.9375 17.4496 17.9969 17.3063 18.1026 17.2006C18.2083 17.0949 18.3516 17.0355 18.5011 17.0355C18.6506 17.0355 18.794 17.0949 18.8997 17.2006C19.0054 17.3063 19.0647 17.4496 19.0647 17.5991V31.0935C19.0647 31.6999 19.5305 32.2208 20.1358 32.2489C20.2879 32.2562 20.4399 32.2325 20.5826 32.1793C20.7253 32.1262 20.8557 32.0446 20.966 31.9395C21.0762 31.8344 21.164 31.708 21.2239 31.568C21.2839 31.428 21.3148 31.2773 21.3147 31.125V24.5415C21.3147 24.3923 21.374 24.2492 21.4795 24.1438C21.585 24.0383 21.7281 23.979 21.8773 23.979C22.0264 23.979 22.1695 24.0383 22.275 24.1438C22.3805 24.2492 22.4398 24.3923 22.4398 24.5415V31.0935C22.4398 31.6999 22.9055 32.2208 23.5108 32.2489C23.663 32.2563 23.8151 32.2328 23.958 32.1797C24.1008 32.1266 24.2314 32.045 24.3417 31.9399C24.4521 31.8348 24.5399 31.7084 24.6 31.5683C24.66 31.4282 24.6909 31.2774 24.6909 31.125V17.5969C24.6973 17.4525 24.7593 17.3162 24.8637 17.2163C24.9682 17.1164 25.1072 17.0606 25.2517 17.0606C25.3962 17.0606 25.5352 17.1164 25.6397 17.2163C25.7441 17.3162 25.806 17.4525 25.8125 17.5969V22.5188C25.8125 22.671 25.8434 22.8218 25.9033 22.9618C25.9633 23.1018 26.051 23.2281 26.1613 23.3332C26.2715 23.4383 26.4019 23.5199 26.5446 23.5731C26.6874 23.6263 26.8394 23.6499 26.9915 23.6426C27.5968 23.6134 28.0625 23.0925 28.0625 22.4873V16.6868C28.0626 16.3576 27.998 16.0316 27.8721 15.7275C27.7463 15.4233 27.5618 15.1469 27.3292 14.9141C27.0965 14.6812 26.8203 14.4965 26.5162 14.3704C26.2122 14.2443 25.8863 14.1804 25.5571 14.1802Z" fill="#F8F8F8"/>
<path id="Vector_2" fill-rule="evenodd" clip-rule="evenodd" d="M10.625 3C9.88631 3 9.15486 3.14549 8.47241 3.42818C7.78995 3.71086 7.16985 4.12519 6.64752 4.64752C5.59263 5.70242 5 7.13316 5 8.625V31.125C5 32.6168 5.59263 34.0476 6.64752 35.1025C7.16985 35.6248 7.78995 36.0391 8.47241 36.3218C9.15486 36.6045 9.88631 36.75 10.625 36.75H33.125C34.6168 36.75 36.0476 36.1574 37.1025 35.1025C38.1574 34.0476 38.75 32.6168 38.75 31.125V8.625C38.75 7.88631 38.6045 7.15486 38.3218 6.47241C38.0391 5.78995 37.6248 5.16985 37.1025 4.64752C36.5801 4.12519 35.9601 3.71086 35.2776 3.42818C34.5951 3.14549 33.8637 3 33.125 3H10.625ZM7.25 8.625C7.25 7.72989 7.60558 6.87145 8.23851 6.23851C8.87145 5.60558 9.72989 5.25 10.625 5.25H33.125C34.0201 5.25 34.8786 5.60558 35.5115 6.23851C36.1444 6.87145 36.5 7.72989 36.5 8.625V31.125C36.5 32.0201 36.1444 32.8786 35.5115 33.5115C34.8786 34.1444 34.0201 34.5 33.125 34.5H10.625C9.72989 34.5 8.87145 34.1444 8.23851 33.5115C7.60558 32.8786 7.25 32.0201 7.25 31.125V8.625Z" fill="#F8F8F8" stroke="white"/>
</g>
</g>
</svg>
