<svg width="37" height="37" viewBox="0 0 37 37" fill="none" xmlns="http://www.w3.org/2000/svg">
<g id="mingcute:remote-line" clip-path="url(#clip0_1_726)">
<g id="Group">
<path id="Vector" d="M24.6673 18.5C25.894 18.5 27.0704 18.9873 27.9377 19.8546C28.8051 20.722 29.2923 21.8984 29.2923 23.125V32.375C29.2923 32.7839 29.1299 33.176 28.8408 33.4651C28.5517 33.7542 28.1596 33.9167 27.7507 33.9167C27.3418 33.9167 26.9497 33.7542 26.6606 33.4651C26.3714 33.176 26.209 32.7839 26.209 32.375V23.125C26.209 22.7161 26.0466 22.324 25.7575 22.0349C25.4683 21.7458 25.0762 21.5833 24.6673 21.5833H12.334C11.9251 21.5833 11.533 21.7458 11.2439 22.0349C10.9548 22.324 10.7923 22.7161 10.7923 23.125V32.375C10.7923 32.7839 10.6299 33.176 10.3408 33.4651C10.0517 33.7542 9.65955 33.9167 9.25068 33.9167C8.8418 33.9167 8.44967 33.7542 8.16055 33.4651C7.87144 33.176 7.70901 32.7839 7.70901 32.375V23.125C7.70901 21.8984 8.19629 20.722 9.06364 19.8546C9.931 18.9873 11.1074 18.5 12.334 18.5H24.6673ZM21.584 24.6667C21.9769 24.6671 22.3549 24.8176 22.6406 25.0873C22.9263 25.357 23.0983 25.7257 23.1213 26.118C23.1443 26.5102 23.0167 26.8965 22.7645 27.1978C22.5123 27.4991 22.1546 27.6928 21.7644 27.7392L21.584 27.75H15.4173C15.0244 27.7496 14.6465 27.5991 14.3607 27.3294C14.075 27.0596 13.9031 26.6909 13.88 26.2987C13.857 25.9064 13.9846 25.5202 14.2368 25.2188C14.489 24.9175 14.8468 24.7239 15.237 24.6775L15.4173 24.6667H21.584ZM18.5007 12.3333C20.1348 12.3333 21.6565 12.8436 22.9052 13.7147C23.2407 13.9485 23.4695 14.3061 23.5414 14.7087C23.6132 15.1113 23.5222 15.526 23.2883 15.8614C23.0544 16.1969 22.6969 16.4258 22.2943 16.4976C21.8917 16.5694 21.477 16.4784 21.1416 16.2445C20.3672 15.7039 19.4451 15.4148 18.5007 15.4167C17.5156 15.4167 16.6075 15.7219 15.8598 16.2445C15.694 16.3653 15.5058 16.4517 15.3062 16.4988C15.1066 16.5459 14.8995 16.5527 14.6973 16.5188C14.495 16.4849 14.3015 16.411 14.1282 16.3013C13.9548 16.1917 13.8051 16.0486 13.6877 15.8804C13.5704 15.7122 13.4878 15.5222 13.4448 15.3217C13.4018 15.1211 13.3992 14.914 13.4372 14.7125C13.4753 14.5109 13.5531 14.319 13.6663 14.1479C13.7794 13.9769 13.9256 13.8301 14.0961 13.7162C15.3878 12.8145 16.9254 12.3317 18.5007 12.3333ZM18.5007 7.70833C21.4576 7.70833 24.1756 8.7505 26.3015 10.488C26.4617 10.6149 26.5951 10.7725 26.6938 10.9515C26.7926 11.1306 26.8547 11.3274 26.8767 11.5307C26.8986 11.734 26.8799 11.9395 26.8217 12.1355C26.7634 12.3315 26.6667 12.5139 26.5373 12.6722C26.4079 12.8304 26.2483 12.9613 26.0678 13.0573C25.8873 13.1533 25.6895 13.2125 25.4859 13.2313C25.2823 13.2501 25.077 13.2283 24.882 13.167C24.6869 13.1057 24.506 13.0063 24.3498 12.8745C22.7002 11.5237 20.6328 10.7875 18.5007 10.7917C16.2807 10.7917 14.2488 11.5717 12.6547 12.8729C12.4982 13.0033 12.3173 13.1013 12.1227 13.1614C11.928 13.2215 11.7234 13.2424 11.5206 13.2229C11.3179 13.2035 11.121 13.144 10.9413 13.048C10.7616 12.9519 10.6028 12.8213 10.4739 12.6635C10.3451 12.5057 10.2488 12.3239 10.1906 12.1287C10.1324 11.9335 10.1135 11.7287 10.1349 11.5261C10.1564 11.3235 10.2177 11.1272 10.3155 10.9485C10.4132 10.7698 10.5454 10.6122 10.7045 10.4849C12.904 8.68581 15.6591 7.70462 18.5007 7.70833ZM18.5007 3.08333C22.5849 3.07753 26.5331 4.5513 29.6146 7.23196C29.9152 7.50221 30.0977 7.87977 30.1227 8.28328C30.1477 8.6868 30.0132 9.08399 29.7481 9.38927C29.4831 9.69456 29.1087 9.88351 28.7057 9.91542C28.3027 9.94733 27.9032 9.81964 27.5934 9.55987C25.0726 7.36635 21.8422 6.16083 18.5007 6.16666C15.157 6.16025 11.9247 7.36823 9.40484 9.56604C9.09614 9.83426 8.69353 9.96887 8.28559 9.94024C7.87764 9.91162 7.49777 9.72211 7.22955 9.41341C6.96133 9.10471 6.82672 8.7021 6.85535 8.29416C6.88397 7.88621 7.07348 7.50634 7.38218 7.23812C10.464 4.55431 14.414 3.07826 18.5007 3.08333Z" fill="#F8F8F8"/>
</g>
</g>
<defs>
<clipPath id="clip0_1_726">
<rect width="37" height="37" fill="white"/>
</clipPath>
</defs>
</svg>
