<svg width="41" height="40" viewBox="0 0 41 40" fill="none" xmlns="http://www.w3.org/2000/svg">
<g id="material-symbols:sensors-rounded">
<path id="Vector" d="M9.33333 11.0642C9.33333 12.6198 9.56944 14.0853 10.0417 15.4609C10.5139 16.8365 11.1944 18.0792 12.0833 19.1892C12.3889 19.5781 12.5417 20.002 12.5417 20.4609C12.5417 20.9198 12.375 21.3153 12.0417 21.6476C11.7083 21.9809 11.3056 22.1409 10.8333 22.1276C10.3611 22.1142 9.97222 21.9126 9.66667 21.5226C8.5 20.0781 7.59722 18.4742 6.95833 16.7109C6.31944 14.9476 6 13.0653 6 11.0642C6 9.06423 6.31944 7.17534 6.95833 5.39756C7.59722 3.61979 8.5 2.02256 9.66667 0.605897C9.97222 0.217008 10.3611 0.0153415 10.8333 0.000897027C11.3056 -0.0135474 11.7083 0.146453 12.0417 0.480897C12.375 0.814231 12.5417 1.20979 12.5417 1.66756C12.5417 2.12534 12.3889 2.54923 12.0833 2.93923C11.1944 4.07812 10.5139 5.33534 10.0417 6.7109C9.56944 8.08645 9.33333 9.53756 9.33333 11.0642ZM16 11.0642C16 11.7031 16.0833 12.3076 16.25 12.8776C16.4167 13.4476 16.6528 13.982 16.9583 14.4809C17.2083 14.8698 17.3267 15.3003 17.3133 15.7726C17.3 16.2448 17.1261 16.6476 16.7917 16.9809C16.4583 17.3142 16.0556 17.4742 15.5833 17.4609C15.1111 17.4476 14.75 17.2459 14.5 16.8559C13.9167 16.0503 13.4656 15.1476 13.1467 14.1476C12.8278 13.1476 12.6678 12.1198 12.6667 11.0642C12.6667 9.9809 12.8267 8.94645 13.1467 7.9609C13.4667 6.97534 13.9178 6.07923 14.5 5.27256C14.7778 4.88367 15.1461 4.68923 15.605 4.68923C16.0639 4.68923 16.4594 4.8559 16.7917 5.18923C17.125 5.52256 17.2989 5.91867 17.3133 6.37756C17.3278 6.83645 17.2094 7.25979 16.9583 7.64756C16.6528 8.14756 16.4167 8.68256 16.25 9.25256C16.0833 9.82256 16 10.4265 16 11.0642ZM22.6667 14.3976C21.75 14.3976 20.9656 14.0715 20.3133 13.4192C19.6611 12.767 19.3344 11.982 19.3333 11.0642C19.3333 10.1476 19.66 9.36312 20.3133 8.7109C20.9667 8.05868 21.7511 7.73201 22.6667 7.7309C23.5833 7.7309 24.3683 8.05756 25.0217 8.7109C25.675 9.36423 26.0011 10.1487 26 11.0642C26 11.9809 25.6739 12.7659 25.0217 13.4192C24.3694 14.0726 23.5844 14.3987 22.6667 14.3976ZM29.3333 11.0642C29.3333 10.4253 29.25 9.8209 29.0833 9.2509C28.9167 8.6809 28.6806 8.14645 28.375 7.64756C28.125 7.25868 28.0139 6.82812 28.0417 6.3559C28.0694 5.88368 28.25 5.4809 28.5833 5.14756C28.9167 4.81423 29.3056 4.65479 29.75 4.66923C30.1944 4.68367 30.5556 4.88479 30.8333 5.27256C31.4167 6.07812 31.8683 6.97423 32.1883 7.9609C32.5083 8.94756 32.6678 9.98201 32.6667 11.0642C32.6667 12.1198 32.5067 13.1476 32.1867 14.1476C31.8667 15.1476 31.4156 16.0503 30.8333 16.8559C30.5833 17.2448 30.2222 17.4392 29.75 17.4392C29.2778 17.4392 28.875 17.2726 28.5417 16.9392C28.2083 16.6059 28.035 16.2103 28.0217 15.7526C28.0083 15.2948 28.1261 14.8709 28.375 14.4809C28.6806 13.9809 28.9167 13.4465 29.0833 12.8776C29.25 12.3087 29.3333 11.7042 29.3333 11.0642ZM36 11.0642C36 9.50868 35.7639 8.04368 35.2917 6.66923C34.8194 5.29479 34.1389 4.05145 33.25 2.93923C32.9444 2.55034 32.7844 2.12645 32.77 1.66756C32.7556 1.20867 32.9156 0.813119 33.25 0.480897C33.5833 0.147564 33.9933 -0.0124363 34.48 0.000897027C34.9667 0.0142304 35.3622 0.215897 35.6667 0.605897C36.8333 2.02256 37.7361 3.61979 38.375 5.39756C39.0139 7.17534 39.3333 9.06423 39.3333 11.0642C39.3333 13.0642 39.0139 14.9465 38.375 16.7109C37.7361 18.4753 36.8333 20.0792 35.6667 21.5226C35.3611 21.9115 34.9722 22.1131 34.5 22.1276C34.0278 22.142 33.625 21.982 33.2917 21.6476C32.9583 21.3142 32.7917 20.9187 32.7917 20.4609C32.7917 20.0031 32.9444 19.5792 33.25 19.1892C34.1389 18.0503 34.8194 16.7937 35.2917 15.4192C35.7639 14.0448 36 12.5931 36 11.0642Z" fill="#F8F8F8"/>
</g>
</svg>
