<svg width="31" height="27" viewBox="0 0 31 27" fill="none" xmlns="http://www.w3.org/2000/svg">
<g id="mingcute:signal-fill" clip-path="url(#clip0_1_742)">
<g id="Group">
<path id="Vector" fill-rule="evenodd" clip-rule="evenodd" d="M25.5 3.9375C25.9973 3.9375 26.4742 4.11529 26.8258 4.43176C27.1775 4.74822 27.375 5.17745 27.375 5.625V21.375C27.375 21.8226 27.1775 22.2518 26.8258 22.5682C26.4742 22.8847 25.9973 23.0625 25.5 23.0625C25.0027 23.0625 24.5258 22.8847 24.1742 22.5682C23.8225 22.2518 23.625 21.8226 23.625 21.375V5.625C23.625 5.17745 23.8225 4.74822 24.1742 4.43176C24.5258 4.11529 25.0027 3.9375 25.5 3.9375ZM20.5 7.3125C20.9973 7.3125 21.4742 7.49029 21.8258 7.80676C22.1775 8.12322 22.375 8.55245 22.375 9V21.375C22.375 21.8226 22.1775 22.2518 21.8258 22.5682C21.4742 22.8847 20.9973 23.0625 20.5 23.0625C20.0027 23.0625 19.5258 22.8847 19.1742 22.5682C18.8225 22.2518 18.625 21.8226 18.625 21.375V9C18.625 8.55245 18.8225 8.12322 19.1742 7.80676C19.5258 7.49029 20.0027 7.3125 20.5 7.3125ZM15.5 10.6875C15.9973 10.6875 16.4742 10.8653 16.8258 11.1818C17.1775 11.4982 17.375 11.9274 17.375 12.375V21.375C17.375 21.8226 17.1775 22.2518 16.8258 22.5682C16.4742 22.8847 15.9973 23.0625 15.5 23.0625C15.0027 23.0625 14.5258 22.8847 14.1742 22.5682C13.8225 22.2518 13.625 21.8226 13.625 21.375V12.375C13.625 11.9274 13.8225 11.4982 14.1742 11.1818C14.5258 10.8653 15.0027 10.6875 15.5 10.6875ZM10.5 14.0625C10.9973 14.0625 11.4742 14.2403 11.8258 14.5568C12.1775 14.8732 12.375 15.3024 12.375 15.75V21.375C12.375 21.8226 12.1775 22.2518 11.8258 22.5682C11.4742 22.8847 10.9973 23.0625 10.5 23.0625C10.0027 23.0625 9.52581 22.8847 9.17417 22.5682C8.82254 22.2518 8.625 21.8226 8.625 21.375V15.75C8.625 15.3024 8.82254 14.8732 9.17417 14.5568C9.52581 14.2403 10.0027 14.0625 10.5 14.0625ZM5.5 17.4375C5.99728 17.4375 6.47419 17.6153 6.82583 17.9318C7.17746 18.2482 7.375 18.6774 7.375 19.125V21.375C7.375 21.8226 7.17746 22.2518 6.82583 22.5682C6.47419 22.8847 5.99728 23.0625 5.5 23.0625C5.00272 23.0625 4.52581 22.8847 4.17417 22.5682C3.82254 22.2518 3.625 21.8226 3.625 21.375V19.125C3.625 18.6774 3.82254 18.2482 4.17417 17.9318C4.52581 17.6153 5.00272 17.4375 5.5 17.4375Z" fill="#F8F8F8"/>
</g>
</g>
<defs>
<clipPath id="clip0_1_742">
<rect width="30" height="27" fill="white" transform="translate(0.5)"/>
</clipPath>
</defs>
</svg>
