<svg width="33" height="32" viewBox="0 0 33 32" fill="none" xmlns="http://www.w3.org/2000/svg">
<g id="icon-park-outline:market-analysis">
<g id="Group">
<path id="Vector" d="M3.24135 26.02L11.3587 17.82L15.7454 22.02L21.1067 17.3334L24.0934 20.2454M29.8334 7.33337C29.8334 6.80294 29.6226 6.29423 29.2476 5.91916C28.8725 5.54409 28.3638 5.33337 27.8334 5.33337H5.16669C4.63625 5.33337 4.12755 5.54409 3.75247 5.91916C3.3774 6.29423 3.16669 6.80294 3.16669 7.33337V13.3334H29.8334V7.33337Z" stroke="white" stroke-width="2.5" stroke-linecap="round" stroke-linejoin="round"/>
<path id="Vector_2" d="M29.8334 12V24.6667C29.8334 25.1971 29.6226 25.7058 29.2476 26.0809C28.8725 26.456 28.3638 26.6667 27.8334 26.6667H8.50002M13.2414 9.33337H25.2414M7.90669 9.33337H9.24002M3.16669 12V18" stroke="white" stroke-width="2.5" stroke-linecap="round" stroke-linejoin="round"/>
</g>
</g>
</svg>
