<svg width="45" height="44" viewBox="0 0 45 44" fill="none" xmlns="http://www.w3.org/2000/svg">
<g id="ant-design:control-outlined">
<path id="Vector" d="M38.3125 4.8125H6.6875C5.92695 4.8125 5.3125 5.42695 5.3125 6.1875V37.8125C5.3125 38.573 5.92695 39.1875 6.6875 39.1875H38.3125C39.073 39.1875 39.6875 38.573 39.6875 37.8125V6.1875C39.6875 5.42695 39.073 4.8125 38.3125 4.8125ZM36.5938 36.0938H8.40625V7.90625H36.5938V36.0938ZM15.1094 29.3477V32.6562C15.1094 32.8453 15.2641 33 15.4531 33H17.5156C17.7047 33 17.8594 32.8453 17.8594 32.6562V29.3477C17.4254 29.4895 16.9656 29.5625 16.4844 29.5625C16.0031 29.5625 15.5434 29.4852 15.1094 29.3477ZM17.8594 20.8398V11.3438C17.8594 11.1547 17.7047 11 17.5156 11H15.4531C15.2641 11 15.1094 11.1547 15.1094 11.3438V20.8398C15.5434 20.698 16.0031 20.625 16.4844 20.625C16.9656 20.625 17.4254 20.7023 17.8594 20.8398ZM15.1094 29.3477C15.5434 29.4895 16.0031 29.5625 16.4844 29.5625C16.9656 29.5625 17.4254 29.4852 17.8594 29.3477C19.6555 28.7676 20.9531 27.0832 20.9531 25.0938C20.9531 23.1043 19.6555 21.4199 17.8594 20.8398C17.4254 20.698 16.9656 20.625 16.4844 20.625C16.0031 20.625 15.5434 20.7023 15.1094 20.8398C13.3133 21.4199 12.0156 23.1043 12.0156 25.0938C12.0156 27.0832 13.3133 28.7676 15.1094 29.3477ZM15.1137 24.3762C15.1266 24.3504 15.1438 24.3246 15.1566 24.2988V24.2945L15.2082 24.2172C15.2125 24.2086 15.2168 24.2043 15.2211 24.1957C15.234 24.1742 15.2512 24.157 15.2641 24.1355C15.2684 24.1313 15.2727 24.1227 15.277 24.1184C15.2984 24.0926 15.3156 24.0711 15.3371 24.0496L15.35 24.0367L15.4016 23.9852L15.4188 23.968C15.4402 23.9465 15.4617 23.9293 15.4875 23.9078C15.5133 23.8863 15.5348 23.8691 15.5605 23.852C15.5691 23.8477 15.5734 23.8434 15.582 23.8391C15.6035 23.8262 15.6207 23.809 15.6422 23.7961C15.6465 23.7918 15.6551 23.7875 15.6594 23.7832C15.6852 23.766 15.7109 23.7531 15.741 23.7359C15.7453 23.7316 15.7539 23.7316 15.7582 23.7273C15.7797 23.7145 15.8012 23.7059 15.827 23.693L15.8527 23.6801C15.8828 23.6672 15.9086 23.6543 15.9387 23.6457C15.9687 23.6328 15.9988 23.6242 16.0289 23.6156C16.0375 23.6113 16.0461 23.6113 16.0547 23.607C16.0805 23.5984 16.102 23.5941 16.1277 23.5898C16.1363 23.5898 16.1406 23.5855 16.1492 23.5855C16.1793 23.577 16.2137 23.5727 16.2437 23.5684C16.2523 23.5684 16.2566 23.5684 16.2652 23.5641C16.291 23.5598 16.3168 23.5598 16.3426 23.5555H16.3684C16.4027 23.5555 16.4328 23.5512 16.4672 23.5512C16.5016 23.5512 16.5316 23.5512 16.566 23.5555H16.5918C16.6176 23.5555 16.6434 23.5598 16.6691 23.5641C16.6777 23.5641 16.682 23.5641 16.6906 23.5684C16.7207 23.5727 16.7551 23.577 16.7852 23.5855C16.7937 23.5855 16.798 23.5898 16.8066 23.5898C16.8324 23.5941 16.8582 23.6027 16.8797 23.607C16.8883 23.6113 16.8969 23.6113 16.9055 23.6156C16.9355 23.6242 16.9656 23.6328 16.9957 23.6457C17.0258 23.6543 17.0516 23.6672 17.0816 23.6801L17.1074 23.693C17.1289 23.7016 17.1547 23.7145 17.1762 23.7273C17.1805 23.7316 17.1891 23.7316 17.1934 23.7359C17.2191 23.7488 17.2492 23.766 17.275 23.7832C17.2793 23.7875 17.2879 23.7918 17.2922 23.7961C17.3137 23.809 17.3352 23.8219 17.3523 23.8391C17.3609 23.8434 17.3652 23.8477 17.3738 23.852C17.3996 23.8691 17.4254 23.8906 17.4469 23.9078C17.4684 23.925 17.4941 23.9465 17.5156 23.968L17.5328 23.9852L17.5844 24.0367L17.5973 24.0496C17.6187 24.0711 17.6402 24.0969 17.6574 24.1184C17.6617 24.1227 17.666 24.1313 17.6703 24.1355C17.6875 24.1527 17.7004 24.1742 17.7133 24.1957C17.7176 24.2043 17.7219 24.2086 17.7262 24.2172L17.7777 24.2945C17.7777 24.2945 17.7777 24.2988 17.782 24.2988C17.9253 24.5392 18.001 24.8139 18.0012 25.0938C18.0012 25.3516 17.9367 25.5965 17.825 25.8113C17.8121 25.8371 17.7949 25.8629 17.782 25.8887C17.782 25.8887 17.782 25.893 17.7777 25.893L17.7262 25.9703C17.7219 25.9789 17.7176 25.9832 17.7133 25.9918C17.7004 26.0133 17.6832 26.0305 17.6703 26.052C17.666 26.0562 17.6617 26.0648 17.6574 26.0691C17.6359 26.0949 17.6187 26.1164 17.5973 26.1379L17.5844 26.1508L17.5328 26.2023L17.5156 26.2195C17.4941 26.241 17.4727 26.2582 17.4469 26.2797C17.4211 26.3012 17.3996 26.3184 17.3738 26.3355C17.3652 26.3398 17.3609 26.3441 17.3523 26.3484C17.3309 26.3613 17.3137 26.3785 17.2922 26.3914C17.2879 26.3957 17.2793 26.4 17.275 26.4043C17.2492 26.4215 17.2234 26.4344 17.1934 26.4516C17.1891 26.4559 17.1805 26.4559 17.1762 26.4602C17.1547 26.473 17.1332 26.4816 17.1074 26.4945L17.0816 26.5074C17.0516 26.5203 17.0258 26.5332 16.9957 26.5418C16.9656 26.5547 16.9355 26.5633 16.9055 26.5719C16.8969 26.5762 16.8883 26.5762 16.8797 26.5805C16.8539 26.5891 16.8324 26.5934 16.8066 26.5977C16.798 26.5977 16.7937 26.602 16.7852 26.602C16.7551 26.6105 16.7207 26.6148 16.6906 26.6191C16.682 26.6191 16.6777 26.6191 16.6691 26.6234C16.6434 26.6277 16.6176 26.6277 16.5918 26.632H16.566C16.5316 26.632 16.5016 26.6363 16.4672 26.6363C16.4328 26.6363 16.4027 26.6363 16.3684 26.632H16.3426C16.3168 26.632 16.291 26.6277 16.2652 26.6234C16.2566 26.6234 16.2523 26.6234 16.2437 26.6191C16.2137 26.6148 16.1793 26.6105 16.1492 26.602C16.1406 26.602 16.1363 26.5977 16.1277 26.5977C16.102 26.5934 16.0762 26.5848 16.0547 26.5805C16.0461 26.5762 16.0375 26.5762 16.0289 26.5719C15.9988 26.5633 15.9687 26.5547 15.9387 26.5418C15.9086 26.5332 15.8828 26.5203 15.8527 26.5074L15.827 26.4945C15.8055 26.4859 15.7797 26.473 15.7582 26.4602C15.7539 26.4559 15.7453 26.4559 15.741 26.4516C15.7152 26.4387 15.6852 26.4215 15.6594 26.4043C15.6551 26.4 15.6465 26.3957 15.6422 26.3914C15.6207 26.3785 15.5992 26.3656 15.582 26.3484C15.5734 26.3441 15.5691 26.3398 15.5605 26.3355C15.5348 26.3184 15.509 26.2969 15.4875 26.2797C15.466 26.2625 15.4402 26.241 15.4188 26.2195L15.4016 26.2023L15.35 26.1508L15.3371 26.1379C15.3156 26.1164 15.2941 26.0906 15.277 26.0691C15.2727 26.0648 15.2684 26.0562 15.2641 26.052C15.2469 26.0348 15.234 26.0133 15.2211 25.9918C15.2168 25.9832 15.2125 25.9789 15.2082 25.9703L15.1566 25.893V25.8887C15.1395 25.8629 15.1266 25.8371 15.1137 25.8113C15.002 25.5965 14.9375 25.3516 14.9375 25.0938C14.9375 24.8359 15.002 24.591 15.1137 24.3762ZM27.1406 23.1602V32.6562C27.1406 32.8453 27.2953 33 27.4844 33H29.5469C29.7359 33 29.8906 32.8453 29.8906 32.6562V23.1602C29.4566 23.302 28.9969 23.375 28.5156 23.375C28.0344 23.375 27.5746 23.2977 27.1406 23.1602ZM29.8906 14.6523V11.3438C29.8906 11.1547 29.7359 11 29.5469 11H27.4844C27.2953 11 27.1406 11.1547 27.1406 11.3438V14.6523C27.5746 14.5105 28.0344 14.4375 28.5156 14.4375C28.9969 14.4375 29.4566 14.5148 29.8906 14.6523ZM27.1406 23.1602C27.5746 23.302 28.0344 23.375 28.5156 23.375C28.9969 23.375 29.4566 23.2977 29.8906 23.1602C31.6867 22.5801 32.9844 20.8957 32.9844 18.9062C32.9844 16.9168 31.6867 15.2324 29.8906 14.6523C29.4566 14.5105 28.9969 14.4375 28.5156 14.4375C28.0344 14.4375 27.5746 14.5148 27.1406 14.6523C25.3445 15.2324 24.0469 16.9168 24.0469 18.9062C24.0469 20.8957 25.3445 22.5801 27.1406 23.1602ZM27.1449 18.1887C27.1578 18.1629 27.175 18.1371 27.1879 18.1113V18.107L27.2395 18.0297C27.2437 18.0211 27.248 18.0168 27.2523 18.0082C27.2652 17.9867 27.2824 17.9695 27.2953 17.948C27.2996 17.9438 27.3039 17.9352 27.3082 17.9309C27.3297 17.9051 27.3469 17.8836 27.3684 17.8621L27.3812 17.8492L27.4328 17.7977L27.45 17.7805C27.4715 17.759 27.493 17.7418 27.5187 17.7203C27.5445 17.6988 27.566 17.6816 27.5918 17.6645C27.6004 17.6602 27.6047 17.6559 27.6133 17.6516C27.6348 17.6387 27.652 17.6215 27.6734 17.6086C27.6777 17.6043 27.6863 17.6 27.6906 17.5957C27.7164 17.5785 27.7422 17.5656 27.7723 17.5484C27.7766 17.5441 27.7852 17.5441 27.7895 17.5398C27.8109 17.527 27.8324 17.5184 27.8582 17.5055L27.884 17.4926C27.9141 17.4797 27.9398 17.4668 27.9699 17.4582C28 17.4453 28.0301 17.4367 28.0602 17.4281C28.0688 17.4238 28.0773 17.4238 28.0859 17.4195C28.1117 17.4109 28.1332 17.4066 28.159 17.4023C28.1676 17.4023 28.1719 17.398 28.1805 17.398C28.2105 17.3895 28.2449 17.3852 28.275 17.3809C28.2836 17.3809 28.2879 17.3809 28.2965 17.3766C28.3223 17.3723 28.348 17.3723 28.3738 17.368H28.3996C28.434 17.368 28.4641 17.3637 28.4984 17.3637C28.5328 17.3637 28.5629 17.3637 28.5973 17.368H28.623C28.6488 17.368 28.6746 17.3723 28.7004 17.3766C28.709 17.3766 28.7133 17.3766 28.7219 17.3809C28.752 17.3852 28.7863 17.3895 28.8164 17.398C28.825 17.398 28.8293 17.4023 28.8379 17.4023C28.8637 17.4066 28.8895 17.4152 28.9109 17.4195C28.9195 17.4238 28.9281 17.4238 28.9367 17.4281C28.9668 17.4367 28.9969 17.4453 29.027 17.4582C29.057 17.4668 29.0828 17.4797 29.1129 17.4926L29.1387 17.5055C29.1602 17.5141 29.1859 17.527 29.2074 17.5398C29.2117 17.5441 29.2203 17.5441 29.2246 17.5484C29.2504 17.5613 29.2805 17.5785 29.3063 17.5957C29.3105 17.6 29.3191 17.6043 29.3234 17.6086C29.3449 17.6215 29.3664 17.6344 29.3836 17.6516C29.3922 17.6559 29.3965 17.6602 29.4051 17.6645C29.4309 17.6816 29.4566 17.7031 29.4781 17.7203C29.4996 17.7375 29.5254 17.759 29.5469 17.7805L29.5641 17.7977L29.6156 17.8492L29.6285 17.8621C29.65 17.8836 29.6715 17.9094 29.6887 17.9309C29.693 17.9352 29.6973 17.9438 29.7016 17.948C29.7187 17.9652 29.7316 17.9867 29.7445 18.0082C29.7488 18.0168 29.7531 18.0211 29.7574 18.0297L29.809 18.107V18.1113C29.9523 18.3517 30.028 18.6264 30.0281 18.9062C30.0281 19.1641 29.9637 19.409 29.852 19.6238C29.8391 19.6496 29.8219 19.6754 29.809 19.7012V19.7055L29.7574 19.7828C29.7531 19.7914 29.7488 19.7957 29.7445 19.8043C29.7316 19.8258 29.7145 19.843 29.7016 19.8645C29.6973 19.8687 29.693 19.8773 29.6887 19.8816C29.6672 19.9074 29.65 19.9289 29.6285 19.9504L29.6156 19.9633L29.5641 20.0148L29.5469 20.032C29.5254 20.0535 29.5039 20.0707 29.4781 20.0922C29.4523 20.1137 29.4309 20.1309 29.4051 20.148C29.3965 20.1523 29.3922 20.1566 29.3836 20.1609C29.3621 20.1738 29.3449 20.191 29.3234 20.2039C29.3191 20.2082 29.3105 20.2125 29.3063 20.2168C29.2805 20.234 29.2547 20.2469 29.2246 20.2641C29.2203 20.2684 29.2117 20.2684 29.2074 20.2727C29.1859 20.2855 29.1645 20.2941 29.1387 20.307L29.1129 20.3199C29.0828 20.3328 29.057 20.3457 29.027 20.3543C28.9969 20.3672 28.9668 20.3758 28.9367 20.3844C28.9281 20.3887 28.9195 20.3887 28.9109 20.393C28.8852 20.4016 28.8637 20.4059 28.8379 20.4102C28.8293 20.4102 28.825 20.4145 28.8164 20.4145C28.7863 20.423 28.752 20.4273 28.7219 20.4316C28.7133 20.4316 28.709 20.4316 28.7004 20.4359C28.6746 20.4402 28.6488 20.4402 28.623 20.4445H28.5973C28.5629 20.4445 28.5328 20.4488 28.4984 20.4488C28.4641 20.4488 28.434 20.4488 28.3996 20.4445H28.3738C28.348 20.4445 28.3223 20.4402 28.2965 20.4359C28.2879 20.4359 28.2836 20.4359 28.275 20.4316C28.2449 20.4273 28.2105 20.423 28.1805 20.4145C28.1719 20.4145 28.1676 20.4102 28.159 20.4102C28.1332 20.4059 28.1074 20.3973 28.0859 20.393C28.0773 20.3887 28.0688 20.3887 28.0602 20.3844C28.0301 20.3758 28 20.3672 27.9699 20.3543C27.9398 20.3457 27.9141 20.3328 27.884 20.3199L27.8582 20.307C27.8367 20.2984 27.8109 20.2855 27.7895 20.2727C27.7852 20.2684 27.7766 20.2684 27.7723 20.2641C27.7465 20.2512 27.7164 20.234 27.6906 20.2168C27.6863 20.2125 27.6777 20.2082 27.6734 20.2039C27.652 20.191 27.6305 20.1781 27.6133 20.1609C27.6047 20.1566 27.6004 20.1523 27.5918 20.148C27.566 20.1309 27.5402 20.1094 27.5187 20.0922C27.4973 20.075 27.4715 20.0535 27.45 20.032L27.4328 20.0148L27.3812 19.9633L27.3684 19.9504C27.3469 19.9289 27.3254 19.9031 27.3082 19.8816C27.3039 19.8773 27.2996 19.8687 27.2953 19.8645C27.2781 19.8473 27.2652 19.8258 27.2523 19.8043C27.248 19.7957 27.2437 19.7914 27.2395 19.7828L27.1879 19.7055V19.7012C27.1707 19.6754 27.1578 19.6496 27.1449 19.6238C27.0332 19.409 26.9688 19.1641 26.9688 18.9062C26.9688 18.6484 27.0332 18.4035 27.1449 18.1887Z" fill="white"/>
</g>
</svg>
